<?xml version="1.0" standalone="no"?><!-- Generator: Gravit.io --><svg xmlns="http://www.w3.org/2000/svg" xmlns:xlink="http://www.w3.org/1999/xlink" style="isolation:isolate" viewBox="-11976.089 2683.814 210.178 281.881" width="210.178" height="281.881"><g id="Group"><g id="Group"><path d=" M -11854.34 2892.843 C -11852.673 2899.148 -11853.539 2905.906 -11856.787 2911.86 L -11860.035 2918.492 C -11862.439 2923.14 -11863.067 2928.264 -11861.811 2932.987 C -11860.49 2937.986 -11856.657 2940.9 -11848.018 2945.9 C -11840.72 2950.12 -11836 2957.908 -11836 2965.695 L -11840.331 2965.695 C -11840.331 2948.449 -11861.993 2949.384 -11865.968 2934.469 C -11867.571 2928.365 -11866.813 2921.783 -11863.781 2915.955 L -11860.49 2909.272 C -11857.892 2904.474 -11857.177 2899.199 -11858.476 2894.325 C -11859.84 2889.225 -11860.353 2883.227 -11865.031 2881.067 L -11870.71 2881.067 C -11863.898 2890.598 -11865.496 2905.982 -11873.504 2913.794 L -11878.289 2918.919 C -11885.604 2926.398 -11885.036 2938.75 -11877.401 2945.623 L -11875.561 2947.482 C -11870.992 2951.979 -11868.48 2958.008 -11868.48 2964.439 L -11868.48 2965.695 L -11872.811 2965.695 L -11872.811 2964.439 C -11872.811 2959.515 -11874.781 2954.843 -11878.376 2951.301 L -11879.025 2950.648 L -11879.047 2950.673 L -11880.628 2949.04 C -11889.967 2940.23 -11890.203 2924.391 -11881.191 2915.176 L -11876.362 2910.026 C -11868.751 2902.635 -11869.693 2888.066 -11877.564 2881.067 Q -11878.029 2877.845 -11876.947 2877.946 L -11861.984 2877.946 C -11860.988 2877.845 -11855.295 2889.199 -11854.34 2892.843 Z " fill="rgb(16,134,245)"/><path d=" M -11871.5 2684.314 L -11868.5 2684.314 L -11868.5 2879.695 L -11871.5 2879.695 L -11871.5 2684.314 Z " fill="rgb(223,240,254)"/><path d=" M -11869 2688.969 L -11869 2874.541 L -11871 2874.541 L -11871 2688.969 L -11869 2688.969 Z  M -11868 2683.814 L -11872 2683.814 L -11872 2879.695 L -11868 2879.695 L -11868 2683.814 Z " fill="rgb(71,136,199)"/><path d=" M -11871.607 2687.039 L -11871.607 2710.961 C -11853.086 2703.68 -11852.973 2718.242 -11833.442 2710.961 L -11833.442 2687.039 C -11852.973 2694.32 -11853.086 2679.758 -11871.607 2687.039 Z " fill="rgb(187,222,251)"/><path d=" M -11887.643 2831.377 C -11888.944 2830.525 -11889.886 2829.269 -11890.2 2827.744 C -11890.558 2826.219 -11890.289 2824.65 -11889.437 2823.349 C -11888.618 2822.038 -11887.311 2821.107 -11885.805 2820.762 C -11884.298 2820.417 -11882.716 2820.686 -11881.409 2821.51 L -11874.412 2825.905 L -11874.412 2815.006 L -11883.831 2808.593 C -11885.131 2807.696 -11885.984 2806.395 -11886.253 2804.87 C -11886.522 2803.345 -11886.208 2801.775 -11885.356 2800.52 C -11884.499 2799.232 -11883.16 2798.344 -11881.64 2798.057 C -11880.121 2797.769 -11878.549 2798.108 -11877.282 2798.995 L -11874.457 2800.923 L -11874.457 2789.845 C -11874.457 2786.616 -11871.855 2784.014 -11868.626 2784.014 C -11865.397 2784.014 -11862.795 2786.616 -11862.795 2789.845 L -11862.795 2814.468 L -11856.292 2809.086 C -11855.26 2808.234 -11853.915 2807.741 -11852.569 2807.741 C -11850.82 2807.741 -11849.205 2808.503 -11848.084 2809.849 C -11847.097 2811.06 -11846.604 2812.585 -11846.783 2814.109 C -11846.918 2815.679 -11847.68 2817.07 -11848.891 2818.056 L -11862.84 2829.583 L -11862.84 2853.04 C -11845.931 2850.843 -11832.835 2836.401 -11832.835 2818.909 C -11832.835 2799.892 -11867.281 2742.975 -11867.281 2742.975 C -11867.281 2742.975 -11901.726 2799.892 -11901.726 2818.909 C -11901.726 2835.459 -11890.065 2849.273 -11874.502 2852.592 L -11874.502 2839.764 L -11887.643 2831.377 L -11887.643 2831.377 Z  M -11945.456 2858.243 C -11948.081 2856.493 -11948.837 2852.972 -11947.16 2850.3 C -11945.484 2847.627 -11941.985 2846.774 -11939.267 2848.376 L -11938.46 2848.914 L -11938.46 2847.524 L -11943.259 2844.25 C -11944.559 2843.353 -11945.412 2842.052 -11945.681 2840.527 C -11945.95 2839.002 -11945.636 2837.432 -11944.784 2836.176 C -11943.707 2834.562 -11941.913 2833.62 -11939.985 2833.62 C -11939.491 2833.62 -11938.953 2833.665 -11938.504 2833.799 L -11938.504 2830.884 C -11938.504 2827.655 -11935.903 2825.053 -11932.674 2825.053 C -11929.444 2825.053 -11926.843 2827.655 -11926.843 2830.884 L -11926.843 2841.155 L -11926.574 2840.931 C -11925.542 2840.078 -11924.197 2839.585 -11922.851 2839.585 C -11921.102 2839.585 -11919.487 2840.347 -11918.366 2841.693 C -11917.379 2842.904 -11916.886 2844.429 -11917.066 2845.954 C -11917.2 2847.524 -11917.963 2848.914 -11919.174 2849.901 L -11926.888 2856.27 L -11926.888 2869.142 C -11917.649 2866.899 -11910.786 2858.557 -11910.786 2848.645 C -11910.786 2836.984 -11931.866 2802.134 -11931.866 2802.134 C -11931.866 2802.134 -11952.947 2836.984 -11952.947 2848.645 C -11952.947 2857.974 -11946.892 2865.868 -11938.549 2868.649 L -11938.549 2862.683 L -11945.456 2858.243 L -11945.456 2858.243 Z  M -11816.419 2858.243 C -11819.044 2856.493 -11819.799 2852.972 -11818.123 2850.3 C -11816.447 2847.627 -11812.948 2846.774 -11810.23 2848.376 L -11809.422 2848.914 L -11809.422 2847.524 L -11814.221 2844.25 C -11816.868 2842.456 -11817.54 2838.823 -11815.746 2836.131 C -11814.67 2834.517 -11812.876 2833.575 -11810.947 2833.575 C -11810.454 2833.575 -11809.916 2833.62 -11809.467 2833.754 L -11809.467 2830.839 C -11809.467 2827.61 -11806.866 2825.008 -11803.636 2825.008 C -11800.407 2825.008 -11797.806 2827.61 -11797.806 2830.839 L -11797.806 2841.11 L -11797.537 2840.886 C -11796.505 2840.034 -11795.16 2839.54 -11793.814 2839.54 C -11792.065 2839.54 -11790.45 2840.303 -11789.329 2841.648 C -11788.342 2842.859 -11787.849 2844.384 -11788.028 2845.909 C -11788.208 2847.434 -11788.925 2848.869 -11790.136 2849.856 L -11797.851 2856.225 L -11797.851 2869.097 C -11788.611 2866.855 -11781.749 2858.512 -11781.749 2848.6 C -11781.749 2836.939 -11802.829 2802.089 -11802.829 2802.089 C -11802.829 2802.089 -11823.909 2836.939 -11823.909 2848.6 C -11823.909 2857.929 -11817.854 2865.823 -11809.512 2868.604 L -11809.512 2862.639 L -11816.419 2858.243 L -11816.419 2858.243 Z " fill="rgb(183,221,249)"/><path d=" M -11766.365 2911.616 C -11771.613 2902.87 -11782.377 2895.246 -11797.716 2889.235 C -11798.613 2888.877 -11799.51 2888.563 -11800.407 2888.204 L -11800.407 2855.014 L -11791.706 2847.838 C -11790.681 2846.992 -11790.299 2845.593 -11790.752 2844.345 C -11791.206 2843.096 -11792.396 2842.267 -11793.724 2842.276 C -11794.442 2842.276 -11795.16 2842.5 -11795.743 2842.994 L -11800.407 2846.851 L -11800.407 2830.839 C -11800.407 2829.09 -11801.798 2827.699 -11803.547 2827.699 C -11805.296 2827.699 -11806.686 2829.09 -11806.686 2830.839 L -11806.686 2838.464 L -11809.108 2836.804 C -11809.647 2836.445 -11810.274 2836.266 -11810.858 2836.266 C -11811.844 2836.266 -11812.831 2836.759 -11813.459 2837.656 C -11813.933 2838.339 -11814.115 2839.183 -11813.963 2840 C -11813.811 2840.817 -11813.339 2841.54 -11812.652 2842.007 L -11806.686 2846.088 L -11806.686 2853.803 L -11811.62 2850.663 C -11812.158 2850.349 -11812.741 2850.17 -11813.28 2850.17 C -11814.357 2850.176 -11815.356 2850.735 -11815.926 2851.65 C -11816.376 2852.357 -11816.525 2853.214 -11816.339 2854.031 C -11816.154 2854.848 -11815.65 2855.557 -11814.939 2856.001 L -11806.642 2861.248 L -11806.642 2886.141 L -11809.333 2885.333 C -11825.165 2880.669 -11843.42 2877.933 -11862.706 2877.305 C -11863.603 2877.26 -11864.5 2877.26 -11865.397 2877.215 L -11865.397 2828.282 L -11850.506 2815.948 C -11849.481 2815.103 -11849.099 2813.704 -11849.553 2812.455 C -11850.006 2811.206 -11851.196 2810.378 -11852.524 2810.387 C -11853.242 2810.387 -11853.96 2810.611 -11854.543 2811.104 L -11865.442 2820.12 L -11865.442 2789.8 C -11865.442 2788.051 -11866.832 2786.66 -11868.581 2786.66 C -11870.33 2786.66 -11871.721 2788.051 -11871.721 2789.8 L -11871.721 2805.991 L -11878.762 2801.192 C -11879.301 2800.833 -11879.929 2800.654 -11880.512 2800.654 C -11881.498 2800.654 -11882.485 2801.147 -11883.113 2802.044 C -11883.587 2802.727 -11883.769 2803.571 -11883.617 2804.388 C -11883.465 2805.205 -11882.993 2805.928 -11882.306 2806.395 L -11871.721 2813.616 L -11871.721 2830.839 L -11882.844 2823.797 C -11883.382 2823.483 -11883.965 2823.304 -11884.503 2823.304 C -11885.581 2823.311 -11886.58 2823.869 -11887.15 2824.784 C -11887.6 2825.491 -11887.749 2826.348 -11887.563 2827.165 C -11887.378 2827.982 -11886.874 2828.691 -11886.163 2829.135 L -11871.676 2838.284 L -11871.676 2877.215 C -11872.573 2877.215 -11873.47 2877.215 -11874.367 2877.26 C -11893.115 2877.484 -11910.921 2879.727 -11926.709 2883.719 C -11927.606 2883.943 -11928.503 2884.167 -11929.4 2884.436 L -11929.4 2855.104 L -11920.698 2847.927 C -11919.674 2847.082 -11919.292 2845.683 -11919.745 2844.434 C -11920.198 2843.185 -11921.388 2842.357 -11922.717 2842.366 C -11923.434 2842.366 -11924.152 2842.59 -11924.735 2843.083 L -11929.4 2846.941 L -11929.4 2830.929 C -11929.4 2829.18 -11930.79 2827.789 -11932.539 2827.789 C -11934.288 2827.789 -11935.679 2829.18 -11935.679 2830.929 L -11935.679 2838.553 L -11938.101 2836.894 C -11938.639 2836.535 -11939.267 2836.356 -11939.85 2836.356 C -11940.837 2836.356 -11941.823 2836.849 -11942.451 2837.746 C -11942.926 2838.429 -11943.107 2839.273 -11942.955 2840.09 C -11942.804 2840.907 -11942.332 2841.63 -11941.644 2842.097 L -11935.679 2846.178 L -11935.679 2853.803 L -11940.612 2850.663 C -11941.151 2850.349 -11941.734 2850.17 -11942.272 2850.17 C -11943.35 2850.176 -11944.349 2850.735 -11944.918 2851.65 C -11945.368 2852.357 -11945.517 2853.214 -11945.332 2854.031 C -11945.147 2854.848 -11944.642 2855.557 -11943.931 2856.001 L -11935.634 2861.248 L -11935.634 2886.23 C -11936.127 2886.41 -11936.666 2886.544 -11937.159 2886.724 C -11937.563 2886.858 -11937.921 2886.993 -11938.325 2887.127 C -11956.849 2893.362 -11969.766 2901.839 -11975.686 2911.661 C -11976.518 2913.142 -11976.021 2915.017 -11974.564 2915.891 C -11973.107 2916.765 -11971.219 2916.322 -11970.304 2914.89 C -11969.99 2914.352 -11969.631 2913.814 -11969.228 2913.276 C -11963.531 2905.292 -11951.556 2898.026 -11935.185 2892.689 C -11916.796 2886.634 -11894.55 2883.45 -11870.958 2883.45 C -11847.367 2883.45 -11825.12 2886.634 -11806.731 2892.689 C -11790.405 2898.026 -11778.43 2905.292 -11772.689 2913.276 C -11772.285 2913.814 -11771.927 2914.352 -11771.613 2914.89 C -11771.03 2915.877 -11769.998 2916.415 -11768.922 2916.415 C -11768.383 2916.415 -11767.8 2916.281 -11767.307 2915.967 C -11765.961 2915.025 -11765.468 2913.096 -11766.365 2911.616 L -11766.365 2911.616 Z " fill="rgb(16,134,245)"/></g></g></svg>