<?xml version="1.0" standalone="no"?><!-- Generator: Gravit.io --><svg xmlns="http://www.w3.org/2000/svg" xmlns:xlink="http://www.w3.org/1999/xlink" style="isolation:isolate" viewBox="-12441.936 2702 251.936 280.256" width="251.936" height="280.256"><g id="Services"><path d=" M -12373.835 2871.367 C -12388.134 2871.367 -12394.724 2874.834 -12401.83 2877.607 L -12401.83 2877.63 C -12415.46 2883.004 -12438.787 2894.137 -12438.787 2894.137 C -12441.526 2895.44 -12442.699 2898.757 -12441.417 2901.53 C -12440.113 2904.304 -12436.837 2905.491 -12434.098 2904.193 C -12434.098 2904.193 -12410.623 2892.988 -12397.869 2887.963 C -12389.991 2884.868 -12386.567 2882.461 -12373.835 2882.461 C -12345.736 2882.461 -12346.87 2894.813 -12335.015 2901.874 C -12334.845 2901.985 -12334.653 2902.096 -12334.462 2902.151 C -12319.758 2908.835 -12303.963 2910.194 -12291.231 2910.194 C -12285.605 2910.194 -12282.05 2911.514 -12280.127 2912.99 C -12278.22 2914.487 -12277.535 2916.024 -12277.535 2918.514 C -12277.535 2921.437 -12278.264 2922.824 -12280.165 2924.233 C -12282.05 2925.619 -12285.687 2926.834 -12291.231 2926.834 L -12319.993 2926.834 C -12332.062 2926.834 -12352.842 2921.459 -12352.842 2921.459 C -12354.756 2920.904 -12356.817 2921.441 -12358.228 2922.863 C -12359.639 2924.286 -12360.179 2926.37 -12359.638 2928.31 C -12359.098 2930.251 -12357.562 2931.743 -12355.625 2932.209 C -12355.625 2932.209 -12335.015 2937.928 -12319.993 2937.928 L -12291.231 2937.928 C -12285.644 2937.928 -12280.79 2936.996 -12276.725 2934.96 C -12276.187 2934.81 -12275.679 2934.566 -12275.224 2934.239 L -12223.266 2899.728 C -12215.454 2895.157 -12210.124 2893.881 -12207.001 2893.92 C -12203.878 2893.987 -12202.804 2894.941 -12201.862 2896.156 C -12200.476 2897.975 -12200.388 2898.668 -12201.287 2900.77 C -12202.207 2902.895 -12204.881 2906.162 -12209.696 2909.545 L -12209.718 2909.545 C -12215.668 2913.75 -12282.198 2957.646 -12289.884 2962.067 C -12295.68 2965.4 -12300.282 2968.911 -12305.525 2970.403 C -12310.768 2971.879 -12316.953 2971.879 -12327.181 2966.937 C -12334.012 2963.625 -12363.07 2948.544 -12372.487 2943.713 C -12377.73 2941.028 -12382.201 2939.508 -12386.759 2939.769 C -12391.339 2940.03 -12395.212 2941.999 -12399.216 2944.556 C -12399.228 2944.556 -12399.239 2944.561 -12399.247 2944.569 C -12399.256 2944.577 -12399.26 2944.588 -12399.26 2944.6 L -12412.825 2953.375 C -12414.535 2954.419 -12415.552 2956.319 -12415.482 2958.339 C -12415.417 2960.362 -12414.267 2962.188 -12412.484 2963.101 C -12410.7 2964.013 -12408.566 2963.868 -12406.919 2962.721 L -12393.415 2953.957 C -12389.931 2951.75 -12387.958 2950.951 -12386.161 2950.84 C -12384.364 2950.729 -12381.905 2951.317 -12377.429 2953.614 C -12368.099 2958.4 -12339.491 2973.265 -12331.892 2976.926 C -12319.971 2982.711 -12310.318 2983.25 -12302.594 2981.086 C -12294.869 2978.901 -12289.369 2974.525 -12284.471 2971.707 C -12273.898 2965.617 -12211.088 2924.017 -12203.445 2918.642 C -12197.649 2914.548 -12193.393 2910.283 -12191.229 2905.163 C -12189.048 2899.914 -12189.806 2893.884 -12193.217 2889.355 L -12193.217 2889.328 C -12195.935 2885.817 -12200.75 2882.96 -12206.804 2882.827 C -12210.255 2882.766 -12214.084 2883.565 -12218.341 2885.145 C -12219.37 2883.751 -12220.596 2882.518 -12221.979 2881.485 C -12225.167 2879.083 -12230.24 2876.914 -12237.132 2876.914 C -12240.666 2876.914 -12243.553 2877.735 -12245.865 2878.711 C -12249.157 2875.527 -12255.003 2871.478 -12263.494 2871.478 C -12270.386 2871.478 -12276.851 2873.813 -12281.343 2876.504 C -12282.181 2877.003 -12284.192 2878.279 -12287.616 2880.442 C -12291.04 2882.611 -12295.51 2885.406 -12299.92 2888.207 C -12306.96 2892.644 -12311.326 2895.418 -12313.852 2897.021 C -12319.221 2895.939 -12324.59 2894.397 -12329.668 2892.145 C -12333.991 2889.328 -12342.312 2871.367 -12373.835 2871.367 L -12373.835 2871.367 Z " fill="rgb(16,134,245)"/><path d=" M -12263.5 2882.572 C -12260.032 2882.572 -12257.55 2883.459 -12255.792 2884.496 L -12281.129 2900.399 C -12284.422 2899.497 -12287.821 2899.061 -12291.231 2899.101 C -12292.82 2899.101 -12294.546 2898.99 -12296.195 2898.929 L -12294.119 2897.625 C -12289.714 2894.83 -12285.26 2892.018 -12281.814 2889.849 C -12278.39 2887.702 -12275.591 2885.95 -12275.782 2886.055 C -12273.191 2884.502 -12267.565 2882.572 -12263.5 2882.572 Z " fill="rgb(255,255,255)"/><path d=" M -12237.132 2888.007 C -12232.678 2888.007 -12230.284 2889.156 -12228.827 2890.171 C -12228.91 2890.215 -12228.989 2890.267 -12229.062 2890.326 L -12266.918 2915.458 C -12267.421 2912.325 -12268.728 2909.381 -12270.709 2906.922 L -12244.238 2890.304 L -12244.216 2890.259 C -12243.997 2890.148 -12239.422 2888.007 -12237.132 2888.007 Z " fill="rgb(255,255,255)"/><g id="Cloud-Box"><g id="Group"><path d=" M -12347.441 2847.982 L -12347.852 2847.962 C -12355.018 2847.808 -12360.746 2841.109 -12360.706 2832.927 C -12360.716 2826.775 -12357.435 2821.239 -12352.428 2818.962 L -12351.622 2818.588 L -12351.751 2817.609 C -12351.856 2816.866 -12351.91 2816.116 -12351.914 2815.364 C -12351.914 2807.061 -12345.999 2800.309 -12338.726 2800.309 C -12337.592 2800.309 -12336.425 2800.485 -12335.275 2800.849 L -12334.168 2801.192 L -12333.917 2799.918 C -12332.247 2791.324 -12325.557 2785.22 -12317.846 2785.255 C -12311.911 2785.255 -12306.416 2788.93 -12303.491 2794.839 L -12303.13 2795.574 L -12302.392 2795.467 C -12301.695 2795.359 -12300.985 2795.291 -12300.262 2795.291 C -12291.924 2795.294 -12284.902 2802.406 -12283.907 2811.856 L -12283.845 2812.483 L -12283.357 2812.797 C -12278.195 2816.141 -12274.999 2822.388 -12274.985 2829.164 C -12274.985 2839.544 -12282.377 2847.982 -12291.47 2847.982 L -12347.441 2847.982 Z " fill="rgb(223,240,254)"/><path d=" M -12317.846 2786.509 C -12312.296 2786.523 -12307.18 2789.94 -12304.451 2795.456 L -12303.721 2796.927 L -12302.253 2796.711 C -12301.493 2796.596 -12300.855 2796.545 -12300.262 2796.545 C -12292.482 2796.55 -12285.929 2803.184 -12284.997 2812.001 L -12284.867 2813.256 L -12283.898 2813.883 C -12279.079 2817.005 -12276.096 2822.838 -12276.084 2829.164 C -12276.084 2838.849 -12282.986 2846.727 -12291.47 2846.727 L -12347.131 2846.727 L -12347.828 2846.707 C -12354.393 2846.559 -12359.638 2840.423 -12359.607 2832.927 C -12359.62 2827.286 -12356.61 2822.209 -12352.017 2820.126 L -12350.404 2819.383 L -12350.661 2817.421 C -12350.758 2816.741 -12350.809 2816.053 -12350.815 2815.364 C -12350.815 2807.759 -12345.388 2801.564 -12338.726 2801.564 C -12337.656 2801.567 -12336.59 2801.736 -12335.559 2802.065 L -12333.343 2802.75 L -12332.838 2800.191 C -12331.287 2792.169 -12325.042 2786.47 -12317.846 2786.509 Z  M -12317.846 2784 C -12326.218 2784 -12333.214 2790.684 -12334.983 2799.642 C -12336.202 2799.256 -12337.461 2799.059 -12338.726 2799.055 C -12346.617 2799.055 -12353.013 2806.356 -12353.013 2815.364 C -12353.013 2816.197 -12352.945 2817 -12352.842 2817.795 C -12359.133 2820.67 -12362.788 2828.198 -12361.587 2835.811 C -12360.387 2843.425 -12354.662 2849.026 -12347.887 2849.216 L -12347.887 2849.236 L -12291.47 2849.236 C -12281.759 2849.236 -12273.886 2840.249 -12273.886 2829.164 C -12273.89 2821.931 -12277.302 2815.26 -12282.816 2811.7 C -12283.86 2801.747 -12291.263 2794.036 -12300.262 2794.036 C -12301.035 2794.036 -12301.789 2794.114 -12302.537 2794.222 C -12305.648 2787.909 -12311.5 2784.001 -12317.846 2784 Z " fill="rgb(0,136,240)"/></g><path d=" M -12306.921 2816.713 L -12317.843 2810.978 L -12328.78 2816.713 L -12321.143 2820.713 L -12317.843 2822.448 L -12314.557 2820.713 L -12306.921 2816.713 Z " fill="rgb(0,136,240)"/><path d=" M -12329.431 2817.634 L -12329.431 2831.111 L -12318.405 2836.891 L -12318.405 2823.429 L -12319.027 2823.097 L -12329.431 2817.634 L -12329.431 2817.634 Z " fill="rgb(184,219,244)"/><path d=" M -12306.269 2817.634 L -12316.674 2823.097 L -12317.295 2823.429 L -12317.295 2836.891 L -12306.269 2831.111 L -12306.269 2817.634 L -12306.269 2817.634 Z " fill="rgb(0,102,209)"/></g><g id="Group"><g id="Logo-Cross"><g id="Group"><linearGradient id="_lgradient_35" x1="12.256000184321833%" y1="3.039441310532176%" x2="81.98080317803222%" y2="82.12228816769036%"><stop offset="0%" stop-opacity="1" style="stop-color:rgb(188,201,210)"/><stop offset="100%" stop-opacity="1" style="stop-color:rgb(171,203,242)"/></linearGradient><path d=" M -12377.346 2809.423 L -12377.346 2809.423 C -12380.08 2810.994 -12384.521 2813.363 -12387.256 2814.709 L -12387.256 2814.709 C -12389.991 2816.056 -12394.493 2815.974 -12397.304 2814.527 L -12397.304 2814.527 C -12400.114 2813.08 -12404.51 2810.639 -12407.115 2809.079 L -12407.115 2809.079 C -12409.719 2807.519 -12411.895 2803.803 -12411.971 2800.785 L -12411.971 2800.785 C -12412.048 2797.767 -12412.003 2792.957 -12411.872 2790.051 L -12411.872 2790.051 C -12411.741 2787.145 -12409.415 2783.509 -12406.681 2781.938 L -12406.681 2781.938 C -12403.947 2780.367 -12399.506 2777.998 -12396.771 2776.652 L -12396.771 2776.652 C -12394.036 2775.306 -12389.534 2775.388 -12386.723 2776.834 L -12386.723 2776.834 C -12383.913 2778.281 -12379.517 2780.722 -12376.913 2782.282 L -12376.913 2782.282 C -12374.308 2783.842 -12372.132 2787.559 -12372.056 2790.577 L -12372.056 2790.577 C -12371.98 2793.595 -12372.024 2798.404 -12372.155 2801.311 L -12372.155 2801.311 C -12372.286 2804.217 -12374.612 2807.852 -12377.346 2809.423 Z " fill="url(#_lgradient_35)"/><linearGradient id="_lgradient_36" x1="12.256000184321833%" y1="3.039441310532176%" x2="81.98080317803222%" y2="82.12228816769036%"><stop offset="0%" stop-opacity="1" style="stop-color:rgb(0,153,255)"/><stop offset="100%" stop-opacity="1" style="stop-color:rgb(0,90,199)"/></linearGradient><path d=" M -12378.337 2809.423 L -12378.337 2809.423 C -12381.072 2810.994 -12385.512 2813.363 -12388.247 2814.709 L -12388.247 2814.709 C -12390.982 2816.056 -12395.485 2815.974 -12398.295 2814.527 L -12398.295 2814.527 C -12401.106 2813.08 -12405.502 2810.639 -12408.106 2809.079 L -12408.106 2809.079 C -12410.71 2807.519 -12412.887 2803.803 -12412.963 2800.785 L -12412.963 2800.785 C -12413.039 2797.767 -12412.995 2792.957 -12412.864 2790.051 L -12412.864 2790.051 C -12412.733 2787.145 -12410.407 2783.509 -12407.672 2781.938 L -12407.672 2781.938 C -12404.938 2780.367 -12400.498 2777.998 -12397.763 2776.652 L -12397.763 2776.652 C -12395.027 2775.306 -12390.525 2775.388 -12387.715 2776.834 L -12387.715 2776.834 C -12384.904 2778.281 -12380.508 2780.722 -12377.904 2782.282 L -12377.904 2782.282 C -12375.3 2783.842 -12373.123 2787.559 -12373.047 2790.577 L -12373.047 2790.577 C -12372.971 2793.595 -12373.015 2798.404 -12373.146 2801.311 L -12373.146 2801.311 C -12373.277 2804.217 -12375.603 2807.852 -12378.337 2809.423 Z " fill="url(#_lgradient_36)"/><linearGradient id="_lgradient_37" x1="107.36977387226483%" y1="102.45111011209434%" x2="-18.742636534166945%" y2="-28.481160497861914%"><stop offset="0%" stop-opacity="1" style="stop-color:rgb(103,178,232)"/><stop offset="45.21739130434783%" stop-opacity="1" style="stop-color:rgb(245,250,253)"/><stop offset="56.382966152765846%" stop-opacity="1" style="stop-color:rgb(248,251,254)"/><stop offset="74.78260869565217%" stop-opacity="1" style="stop-color:rgb(248,251,254)"/><stop offset="100%" stop-opacity="1" style="stop-color:rgb(255,255,255)"/></linearGradient><path d=" M -12396.719 2810.316 C -12397.232 2810.316 -12397.647 2809.873 -12397.647 2809.326 L -12397.647 2800.415 L -12406.003 2800.415 C -12406.516 2800.415 -12406.932 2799.972 -12406.932 2799.425 L -12406.932 2791.505 C -12406.932 2790.958 -12406.516 2790.515 -12406.003 2790.515 L -12397.647 2790.515 L -12397.647 2781.604 C -12397.647 2781.057 -12397.232 2780.614 -12396.719 2780.614 L -12389.291 2780.614 C -12388.778 2780.614 -12388.363 2781.057 -12388.363 2781.604 L -12388.363 2790.515 L -12380.007 2790.515 C -12379.494 2790.515 -12379.078 2790.958 -12379.078 2791.505 L -12379.078 2799.425 C -12379.078 2799.972 -12379.494 2800.415 -12380.007 2800.415 L -12388.363 2800.415 L -12388.363 2809.326 C -12388.363 2809.873 -12388.778 2810.316 -12389.291 2810.316 L -12396.719 2810.316 Z " fill="url(#_lgradient_37)"/></g></g><g id="Group"><linearGradient id="_lgradient_38" x1="12.256000184321833%" y1="3.039441310532176%" x2="81.98080317803222%" y2="82.12228816769036%"><stop offset="0%" stop-opacity="1" style="stop-color:rgb(188,201,210)"/><stop offset="100%" stop-opacity="1" style="stop-color:rgb(171,203,242)"/></linearGradient><path d=" M -12220.771 2855.566 L -12220.771 2855.566 C -12223.733 2857.346 -12228.543 2860.028 -12231.506 2861.553 L -12231.506 2861.553 C -12234.469 2863.078 -12239.347 2862.985 -12242.391 2861.347 L -12242.391 2861.347 C -12245.436 2859.708 -12250.198 2856.944 -12253.019 2855.177 L -12253.019 2855.177 C -12255.84 2853.41 -12258.198 2849.201 -12258.28 2845.783 L -12258.28 2845.783 C -12258.363 2842.365 -12258.315 2836.918 -12258.173 2833.627 L -12258.173 2833.627 C -12258.031 2830.336 -12255.511 2826.219 -12252.549 2824.439 L -12252.549 2824.439 C -12249.587 2822.66 -12244.777 2819.978 -12241.814 2818.453 L -12241.814 2818.453 C -12238.851 2816.928 -12233.974 2817.021 -12230.929 2818.659 L -12230.929 2818.659 C -12227.885 2820.298 -12223.123 2823.062 -12220.302 2824.829 L -12220.302 2824.829 C -12217.48 2826.596 -12215.123 2830.805 -12215.04 2834.223 L -12215.04 2834.223 C -12214.958 2837.64 -12215.006 2843.087 -12215.148 2846.379 L -12215.148 2846.379 C -12215.29 2849.67 -12217.809 2853.787 -12220.771 2855.566 Z " fill="url(#_lgradient_38)"/><linearGradient id="_lgradient_39" x1="12.256000184321833%" y1="3.039441310532176%" x2="81.98080317803222%" y2="82.12228816769036%"><stop offset="0%" stop-opacity="1" style="stop-color:rgb(0,153,255)"/><stop offset="100%" stop-opacity="1" style="stop-color:rgb(0,90,199)"/></linearGradient><path d=" M -12221.845 2855.322 L -12221.845 2855.322 C -12224.807 2857.102 -12229.617 2859.784 -12232.58 2861.309 L -12232.58 2861.309 C -12235.543 2862.833 -12240.421 2862.741 -12243.465 2861.103 L -12243.465 2861.103 C -12246.51 2859.464 -12251.272 2856.7 -12254.093 2854.933 L -12254.093 2854.933 C -12256.914 2853.166 -12259.272 2848.957 -12259.354 2845.539 L -12259.354 2845.539 C -12259.437 2842.121 -12259.389 2836.674 -12259.247 2833.383 L -12259.247 2833.383 C -12259.105 2830.091 -12256.585 2825.975 -12253.623 2824.195 L -12253.623 2824.195 C -12250.661 2822.416 -12245.851 2819.733 -12242.888 2818.209 L -12242.888 2818.209 C -12239.925 2816.684 -12235.048 2816.776 -12232.003 2818.415 L -12232.003 2818.415 C -12228.959 2820.053 -12224.197 2822.818 -12221.376 2824.585 L -12221.376 2824.585 C -12218.554 2826.351 -12216.197 2830.561 -12216.114 2833.978 L -12216.114 2833.978 C -12216.032 2837.396 -12216.08 2842.843 -12216.222 2846.135 L -12216.222 2846.135 C -12216.363 2849.426 -12218.883 2853.543 -12221.845 2855.322 Z " fill="url(#_lgradient_39)"/><g id="Group"><path d=" M -12243.691 2834.505 L -12231.778 2834.505 L -12231.778 2846.326 L -12243.691 2846.326 L -12243.691 2834.505 Z " fill="rgb(46,91,136)"/><path d=" M -12241.457 2841.729 L -12234.011 2841.729 L -12234.011 2851.579 L -12241.457 2851.579 L -12241.457 2841.729 Z " fill="rgb(255,255,255)"/><path d=" M -12231.033 2833.848 C -12231.033 2828.833 -12244.436 2830.583 -12244.436 2833.848 L -12244.436 2838.445 C -12244.436 2841.711 -12241.437 2844.356 -12237.734 2844.356 C -12234.031 2844.356 -12231.033 2841.711 -12231.033 2838.445 L -12231.033 2833.848 Z " fill="rgb(255,255,255)" vector-effect="non-scaling-stroke" stroke-width="1" stroke="rgb(0,94,202)" stroke-linejoin="miter" stroke-linecap="butt" stroke-miterlimit="4"/><path d=" M -12237.827 2827.281 C -12242.35 2827.281 -12248.903 2829.328 -12248.903 2842.385 L -12243.691 2845.669 L -12243.691 2837.132 L -12234.756 2832.535 L -12231.778 2835.819 L -12231.778 2845.669 L -12227.31 2841.729 C -12227.31 2839.087 -12227.161 2828.595 -12234.849 2828.595 L -12235.594 2827.281 L -12237.827 2827.281 Z " fill="rgb(182,220,254)"/><path d=" M -12235.501 2838.445 C -12235.501 2838.084 -12235.165 2837.789 -12234.756 2837.789 C -12234.346 2837.789 -12234.011 2838.084 -12234.011 2838.445 C -12234.011 2838.806 -12234.346 2839.102 -12234.756 2839.102 C -12235.165 2839.102 -12235.501 2838.806 -12235.501 2838.445 Z  M -12241.457 2838.445 C -12241.457 2838.806 -12241.122 2839.102 -12240.713 2839.102 C -12240.303 2839.102 -12239.968 2838.806 -12239.968 2838.445 C -12239.968 2838.084 -12240.303 2837.789 -12240.713 2837.789 C -12241.122 2837.789 -12241.457 2838.084 -12241.457 2838.445 Z " fill="rgb(71,136,199)"/><linearGradient id="_lgradient_40" x1="161.09531549989808%" y1="141.6216565750003%" x2="-58.286034047250745%" y2="-57.64335751394496%"><stop offset="0%" stop-opacity="1" style="stop-color:rgb(103,178,232)"/><stop offset="33.04347826086956%" stop-opacity="1" style="stop-color:rgb(160,207,241)"/><stop offset="46.52173913043478%" stop-opacity="1" style="stop-color:rgb(209,232,248)"/><stop offset="100%" stop-opacity="1" style="stop-color:rgb(255,255,255)"/></linearGradient><path d=" M -12231.871 2827.281 C -12231.871 2827.281 -12232.429 2825.968 -12237.548 2825.968 C -12237.548 2825.968 -12243.784 2827.281 -12243.784 2827.281 C -12243.784 2827.281 -12244.529 2831.222 -12244.529 2833.848 C -12244.529 2833.848 -12241.457 2833.192 -12237.734 2833.192 C -12234.011 2833.192 -12231.126 2833.848 -12231.126 2833.848 C -12231.126 2831.222 -12231.871 2827.281 -12231.871 2827.281 Z  M -12225.821 2853.549 L -12249.648 2853.549 C -12249.648 2846.315 -12241.457 2845.012 -12241.457 2845.012 L -12241.457 2845.669 L -12237.734 2850.922 L -12234.011 2845.669 L -12234.011 2845.012 C -12234.011 2845.012 -12225.821 2846.341 -12225.821 2853.549 Z " fill="url(#_lgradient_40)"/><path d=" M -12231.79 2849.034 C -12231.883 2846.626 -12232.531 2844.882 -12232.571 2844.776 C -12232.83 2844.17 -12233.143 2843.584 -12233.508 2843.022 C -12233.671 2843.14 -12233.837 2843.255 -12234.011 2843.357 L -12234.011 2845.135 C -12233.999 2845.163 -12233.985 2845.192 -12233.974 2845.22 C -12233.967 2845.238 -12233.375 2846.836 -12233.282 2849.04 C -12235.015 2849.445 -12235.501 2851.233 -12235.501 2852.236 L -12234.011 2852.238 C -12234.011 2852.156 -12233.979 2850.266 -12232.522 2850.266 C -12231.065 2850.266 -12231.033 2852.156 -12231.033 2852.236 L -12229.544 2852.236 C -12229.544 2851.228 -12230.035 2849.43 -12231.79 2849.034 Z  M -12241.457 2843.36 C -12241.565 2843.296 -12241.666 2843.219 -12241.771 2843.15 C -12242.397 2843.874 -12242.806 2844.537 -12242.908 2844.805 C -12243.293 2845.823 -12243.691 2846.877 -12243.691 2849.609 C -12243.691 2849.97 -12243.356 2850.266 -12242.946 2850.266 C -12242.537 2850.266 -12242.202 2849.97 -12242.202 2849.609 C -12242.202 2847.087 -12241.859 2846.182 -12241.494 2845.22 C -12241.484 2845.192 -12241.472 2845.164 -12241.457 2845.138 L -12241.457 2843.36 Z " fill="rgb(71,136,199)"/><path d=" M -12240.713 2850.922 C -12240.713 2851.627 -12241.139 2852.277 -12241.83 2852.629 C -12242.522 2852.981 -12243.374 2852.98 -12244.065 2852.628 C -12244.756 2852.276 -12245.182 2851.625 -12245.182 2850.921 C -12245.181 2849.833 -12244.18 2848.951 -12242.946 2848.951 C -12241.712 2848.951 -12240.712 2849.834 -12240.713 2850.922 L -12240.713 2850.922 Z " fill="rgb(71,136,199)"/><path d=" M -12234.011 2853.549 L -12235.501 2853.549 L -12235.501 2852.236 L -12234.011 2852.236 L -12234.011 2853.549 Z  M -12229.544 2852.236 L -12231.033 2852.236 L -12231.033 2853.549 L -12229.544 2853.549 L -12229.544 2852.236 Z  M -12242.946 2851.579 C -12242.535 2851.579 -12242.202 2851.285 -12242.202 2850.922 C -12242.202 2850.56 -12242.535 2850.266 -12242.946 2850.266 C -12243.36 2850.266 -12243.691 2850.558 -12243.691 2850.922 C -12243.691 2851.287 -12243.36 2851.579 -12242.946 2851.579 Z " fill="rgb(207,216,220)"/></g></g><g id="Group"><linearGradient id="_lgradient_41" x1="12.256000184321833%" y1="3.039441310532176%" x2="81.98080317803222%" y2="82.12228816769036%"><stop offset="0%" stop-opacity="1" style="stop-color:rgb(188,201,210)"/><stop offset="100%" stop-opacity="1" style="stop-color:rgb(171,203,242)"/></linearGradient><path d=" M -12270.137 2759.781 L -12270.137 2759.781 C -12274.676 2762.455 -12282.047 2766.487 -12286.588 2768.779 L -12286.588 2768.779 C -12291.129 2771.07 -12298.603 2770.931 -12303.269 2768.469 L -12303.269 2768.469 C -12307.934 2766.006 -12315.232 2761.851 -12319.556 2759.196 L -12319.556 2759.196 C -12323.879 2756.54 -12327.492 2750.214 -12327.618 2745.077 L -12327.618 2745.077 C -12327.745 2739.94 -12327.671 2731.753 -12327.454 2726.806 L -12327.454 2726.806 C -12327.236 2721.859 -12323.375 2715.671 -12318.836 2712.997 L -12318.836 2712.997 C -12314.297 2710.322 -12306.925 2706.291 -12302.384 2703.999 L -12302.384 2703.999 C -12297.844 2701.707 -12290.369 2701.846 -12285.704 2704.309 L -12285.704 2704.309 C -12281.038 2706.771 -12273.74 2710.927 -12269.417 2713.582 L -12269.417 2713.582 C -12265.093 2716.237 -12261.481 2722.564 -12261.354 2727.701 L -12261.354 2727.701 C -12261.228 2732.838 -12261.301 2741.025 -12261.519 2745.972 L -12261.519 2745.972 C -12261.736 2750.919 -12265.597 2757.106 -12270.137 2759.781 Z " fill="url(#_lgradient_41)"/><linearGradient id="_lgradient_42" x1="12.256000184321833%" y1="3.039441310532176%" x2="81.98080317803222%" y2="82.12228816769036%"><stop offset="0%" stop-opacity="1" style="stop-color:rgb(0,153,255)"/><stop offset="100%" stop-opacity="1" style="stop-color:rgb(0,90,199)"/></linearGradient><path d=" M -12271.782 2759.414 L -12271.782 2759.414 C -12276.321 2762.088 -12283.693 2766.12 -12288.234 2768.411 L -12288.234 2768.411 C -12292.775 2770.703 -12300.249 2770.564 -12304.914 2768.102 L -12304.914 2768.102 C -12309.58 2765.639 -12316.878 2761.484 -12321.201 2758.828 L -12321.201 2758.828 C -12325.525 2756.173 -12329.138 2749.847 -12329.264 2744.71 L -12329.264 2744.71 C -12329.391 2739.573 -12329.317 2731.386 -12329.1 2726.439 L -12329.1 2726.439 C -12328.882 2721.492 -12325.021 2715.304 -12320.482 2712.63 L -12320.482 2712.63 C -12315.943 2709.955 -12308.571 2705.923 -12304.03 2703.632 L -12304.03 2703.632 C -12299.489 2701.34 -12292.015 2701.479 -12287.35 2703.942 L -12287.35 2703.942 C -12282.684 2706.404 -12275.386 2710.559 -12271.063 2713.215 L -12271.063 2713.215 C -12266.739 2715.87 -12263.126 2722.197 -12263 2727.334 L -12263 2727.334 C -12262.873 2732.471 -12262.947 2740.658 -12263.164 2745.605 L -12263.164 2745.605 C -12263.382 2750.552 -12267.243 2756.739 -12271.782 2759.414 Z " fill="url(#_lgradient_42)"/><linearGradient id="_lgradient_43" x1="188.66979161507692%" y1="-100.98106549671009%" x2="-85.92502591468718%" y2="206.01653678160966%"><stop offset="0%" stop-opacity="1" style="stop-color:rgb(255,255,255)"/><stop offset="18.695652173913043%" stop-opacity="1" style="stop-color:rgb(253,253,253)"/><stop offset="37.391304347826086%" stop-opacity="1" style="stop-color:rgb(252,254,255)"/><stop offset="46.74720182739094%" stop-opacity="1" style="stop-color:rgb(252,254,255)"/><stop offset="49.9187611292604%" stop-opacity="1" style="stop-color:rgb(252,254,255)"/><stop offset="62.76961092672367%" stop-opacity="1" style="stop-color:rgb(159,210,247)"/><stop offset="81.30434782608695%" stop-opacity="1" style="stop-color:rgb(163,212,247)"/><stop offset="99.19067926225905%" stop-opacity="1" style="stop-color:rgb(130,197,244)"/><stop offset="100%" stop-opacity="1" style="stop-color:rgb(128,196,244)"/></linearGradient><path d=" M -12304.81 2717.741 C -12301.948 2717.741 -12299.091 2718.749 -12296.903 2720.758 C -12296.626 2721.019 -12293.101 2724.214 -12289.816 2727.237 L -12279.548 2736.687 C -12275.179 2740.708 -12275.179 2747.264 -12279.548 2751.285 C -12281.661 2753.22 -12284.521 2754.305 -12287.502 2754.303 C -12290.365 2754.303 -12293.221 2753.295 -12295.408 2751.285 C -12295.752 2750.963 -12300.88 2746.249 -12305.677 2741.834 C -12308.974 2738.8 -12312.422 2735.582 -12312.716 2735.311 C -12314.814 2733.381 -12315.993 2730.764 -12315.993 2728.034 C -12315.993 2725.304 -12314.814 2722.686 -12312.716 2720.756 C -12310.621 2718.823 -12307.776 2717.738 -12304.81 2717.741 Z  M -12304.81 2720.58 C -12306.973 2720.58 -12309.017 2721.347 -12310.547 2722.754 C -12313.705 2725.661 -12313.699 2730.408 -12310.547 2733.316 C -12310.251 2733.587 -12306.757 2736.761 -12303.46 2739.794 L -12294.782 2731.807 L -12279.981 2745.429 C -12278.675 2742.151 -12282.15 2738.418 -12282.15 2738.418 L -12292.034 2729.278 C -12295.319 2726.255 -12298.796 2723.01 -12299.072 2722.754 C -12300.593 2721.354 -12302.659 2720.571 -12304.81 2720.58 Z " fill="url(#_lgradient_43)"/></g></g></g></svg>