<?xml version="1.0" standalone="no"?><!-- Generator: Gravit.io --><svg xmlns="http://www.w3.org/2000/svg" xmlns:xlink="http://www.w3.org/1999/xlink" style="isolation:isolate" viewBox="-11155.408 2930.541 122.307 134.311" width="122.307" height="134.311"><g id="citicen"><g id="Group"><linearGradient id="_lgradient_14" x1="12.256000184321833%" y1="3.039441310532176%" x2="81.98080317803222%" y2="82.12228816769036%"><stop offset="0%" stop-opacity="1" style="stop-color:rgb(188,201,210)"/><stop offset="100%" stop-opacity="1" style="stop-color:rgb(171,203,242)"/></linearGradient><path d=" M -11048.896 3042.502 L -11048.896 3042.502 C -11057.002 3047.624 -11070.167 3055.347 -11078.276 3059.736 L -11078.276 3059.736 C -11086.385 3064.125 -11099.733 3063.859 -11108.065 3059.143 L -11108.065 3059.143 C -11116.397 3054.426 -11129.43 3046.467 -11137.151 3041.381 L -11137.151 3041.381 C -11144.872 3036.294 -11151.324 3024.177 -11151.55 3014.337 L -11151.55 3014.337 C -11151.776 3004.498 -11151.644 2988.816 -11151.256 2979.341 L -11151.256 2979.341 C -11150.868 2969.865 -11143.972 2958.013 -11135.866 2952.891 L -11135.866 2952.891 C -11127.76 2947.768 -11114.595 2940.046 -11106.486 2935.656 L -11106.486 2935.656 C -11098.377 2931.267 -11085.029 2931.533 -11076.697 2936.25 L -11076.697 2936.25 C -11068.365 2940.967 -11055.332 2948.925 -11047.611 2954.012 L -11047.611 2954.012 C -11039.89 2959.098 -11033.438 2971.216 -11033.212 2981.055 L -11033.212 2981.055 C -11032.986 2990.895 -11033.118 3006.576 -11033.506 3016.052 L -11033.506 3016.052 C -11033.894 3025.527 -11040.79 3037.379 -11048.896 3042.502 Z " fill="url(#_lgradient_14)"/><linearGradient id="_lgradient_15" x1="12.256000184321833%" y1="3.039441310532176%" x2="81.98080317803222%" y2="82.12228816769036%"><stop offset="0%" stop-opacity="1" style="stop-color:rgb(0,153,255)"/><stop offset="100%" stop-opacity="1" style="stop-color:rgb(0,90,199)"/></linearGradient><path d=" M -11046.282 3038.562 L -11058.749 3046.441 C -11063.415 3049.389 -11071.143 3053.916 -11075.997 3056.543 L -11087.793 3062.929 C -11092.647 3065.556 -11100.487 3065.481 -11105.29 3062.762 L -11118.078 3055.523 C -11122.881 3052.804 -11130.522 3048.131 -11135.131 3045.095 L -11146.408 3037.666 C -11151.017 3034.63 -11154.862 3027.685 -11154.989 3022.168 L -11155.348 3006.506 C -11155.475 3000.989 -11155.395 2992.032 -11155.169 2986.517 L -11154.581 2972.164 C -11154.355 2966.649 -11150.384 2959.778 -11145.718 2956.83 L -11133.251 2948.951 C -11128.585 2946.003 -11120.857 2941.476 -11116.003 2938.849 L -11104.207 2932.463 C -11099.353 2929.836 -11091.513 2929.911 -11086.71 2932.63 L -11073.922 2939.87 C -11069.119 2942.589 -11061.478 2947.261 -11056.869 2950.297 L -11045.592 2957.726 C -11040.983 2960.762 -11037.138 2967.707 -11037.011 2973.225 L -11036.652 2988.886 C -11036.525 2994.403 -11036.605 3003.36 -11036.831 3008.875 L -11037.419 3023.228 C -11037.645 3028.743 -11041.616 3035.614 -11046.282 3038.562 Z " fill="url(#_lgradient_15)"/></g><path d=" M -11135.267 3021.2 C -11134.722 3011.257 -11127.801 3003.363 -11119.37 3003.363 L -11106.625 3003.363 C -11098.195 3003.363 -11091.274 3011.257 -11090.728 3021.2 L -11135.267 3021.2 Z " fill="rgb(152,204,253)"/><path d=" M -11112.998 3008.46 C -11118.665 3008.46 -11120.184 3004.739 -11120.432 3003.96 L -11120.432 2995.092 L -11105.563 2995.092 L -11105.563 3003.96 C -11105.82 3004.747 -11107.331 3008.46 -11112.998 3008.46 Z " fill="rgb(255,255,255)"/><path d=" M -11097.033 3021.2 C -11096.487 3011.257 -11089.566 3003.363 -11081.136 3003.363 L -11068.391 3003.363 C -11059.96 3003.363 -11053.04 3011.257 -11052.494 3021.2 L -11097.033 3021.2 Z " fill="rgb(152,204,253)"/><path d=" M -11074.763 3008.46 C -11080.43 3008.46 -11081.949 3004.739 -11082.198 3003.96 L -11082.198 2995.092 L -11067.329 2995.092 L -11067.329 3003.96 C -11067.586 3004.747 -11069.096 3008.46 -11074.763 3008.46 Z " fill="rgb(255,255,255)"/><path d=" M -11064.142 2988.074 C -11065.902 2988.074 -11067.329 2986.363 -11067.329 2984.252 C -11067.329 2982.141 -11065.902 2980.43 -11064.142 2980.43 C -11061.196 2980.43 -11060.956 2981.436 -11060.956 2982.55 C -11060.956 2984.859 -11062.566 2988.074 -11064.142 2988.074 Z  M -11085.384 2988.074 C -11086.96 2988.074 -11088.57 2984.859 -11088.57 2982.55 C -11088.57 2981.436 -11088.33 2980.43 -11085.384 2980.43 C -11083.624 2980.43 -11082.198 2982.141 -11082.198 2984.252 C -11082.198 2986.363 -11083.624 2988.074 -11085.384 2988.074 Z " fill="rgb(152,204,253)"/><path d=" M -11064.142 2981.704 C -11062.392 2981.704 -11062.076 2982.101 -11062.067 2982.101 C -11062.029 2982.246 -11062.012 2982.398 -11062.018 2982.55 C -11062.018 2984.392 -11063.354 2986.8 -11064.142 2986.8 C -11065.311 2986.8 -11066.267 2985.654 -11066.267 2984.252 C -11066.267 2982.851 -11065.311 2981.704 -11064.142 2981.704 Z  M -11085.384 2981.704 C -11084.216 2981.704 -11083.26 2982.851 -11083.26 2984.252 C -11083.26 2985.654 -11084.216 2986.8 -11085.384 2986.8 C -11086.172 2986.8 -11087.508 2984.392 -11087.508 2982.55 C -11087.508 2982.27 -11087.466 2982.122 -11087.459 2982.101 C -11087.451 2982.101 -11087.134 2981.704 -11085.384 2981.704 Z  M -11064.142 2979.156 C -11066.489 2979.156 -11068.391 2981.437 -11068.391 2984.252 C -11068.391 2987.067 -11066.489 2989.348 -11064.142 2989.348 C -11061.795 2989.348 -11059.894 2985.366 -11059.894 2982.55 C -11059.894 2979.742 -11061.795 2979.156 -11064.142 2979.156 Z  M -11085.384 2979.156 C -11087.731 2979.156 -11089.632 2979.742 -11089.632 2982.55 C -11089.632 2985.366 -11087.731 2989.348 -11085.384 2989.348 C -11083.038 2989.348 -11081.136 2987.067 -11081.136 2984.252 C -11081.136 2981.437 -11083.038 2979.156 -11085.384 2979.156 Z " fill="rgb(71,136,199)"/><path d=" M -11074.763 3000.815 C -11075.621 3000.806 -11076.432 3000.344 -11076.979 2999.551 L -11077.202 2999.223 L -11077.542 2999.121 C -11082.772 2997.602 -11086.453 2991.981 -11086.446 2985.526 L -11086.446 2972.128 C -11086.446 2968.815 -11084.197 2966.114 -11081.433 2966.114 L -11068.093 2966.114 C -11065.33 2966.114 -11063.08 2968.815 -11063.08 2972.128 L -11063.08 2985.526 C -11063.08 2991.998 -11066.749 2997.579 -11071.983 2999.123 L -11072.323 2999.223 L -11072.548 2999.551 C -11073.095 3000.344 -11073.905 3000.807 -11074.763 3000.815 Z " fill="rgb(255,255,255)"/><path d=" M -11063.08 2985.526 L -11063.08 2981.704 C -11063.08 2974.816 -11067.728 2971.142 -11067.926 2970.984 L -11068.631 2970.446 L -11069.236 2971.134 C -11069.262 2971.162 -11072.448 2974.646 -11079.145 2974.646 C -11082.778 2974.646 -11086.446 2977.265 -11086.446 2983.098 L -11086.446 2985.526 L -11086.695 2985.526 C -11087.226 2983.136 -11088.57 2976.557 -11088.57 2971.511 C -11088.57 2964.545 -11084.065 2957.496 -11075.46 2957.496 C -11070.846 2957.496 -11069.436 2961.607 -11069.379 2961.777 L -11069.113 2962.583 L -11068.391 2962.593 C -11065.27 2962.593 -11060.956 2965.747 -11060.956 2971.68 C -11060.956 2976.299 -11062.309 2983.07 -11062.84 2985.526 L -11063.08 2985.526 Z " fill="rgb(152,204,253)"/><path d=" M -11102.377 2988.074 C -11104.137 2988.074 -11105.563 2986.363 -11105.563 2984.252 C -11105.563 2982.141 -11104.137 2980.43 -11102.377 2980.43 C -11099.431 2980.43 -11099.191 2981.436 -11099.191 2982.55 C -11099.191 2984.859 -11100.801 2988.074 -11102.377 2988.074 Z  M -11123.619 2988.074 C -11125.195 2988.074 -11126.805 2984.859 -11126.805 2982.55 C -11126.805 2981.436 -11126.565 2980.43 -11123.619 2980.43 C -11121.859 2980.43 -11120.432 2982.141 -11120.432 2984.252 C -11120.432 2986.363 -11121.859 2988.074 -11123.619 2988.074 Z " fill="rgb(152,204,253)"/><path d=" M -11102.377 2981.704 C -11100.627 2981.704 -11100.31 2982.101 -11100.302 2982.101 C -11100.263 2982.246 -11100.247 2982.398 -11100.253 2982.55 C -11100.253 2984.392 -11101.589 2986.8 -11102.377 2986.8 C -11103.545 2986.8 -11104.501 2985.654 -11104.501 2984.252 C -11104.501 2982.851 -11103.545 2981.704 -11102.377 2981.704 Z  M -11123.619 2981.704 C -11122.45 2981.704 -11121.494 2982.851 -11121.494 2984.252 C -11121.494 2985.654 -11122.45 2986.8 -11123.619 2986.8 C -11124.407 2986.8 -11125.743 2984.392 -11125.743 2982.55 C -11125.743 2982.27 -11125.7 2982.122 -11125.694 2982.101 C -11125.685 2982.101 -11125.369 2981.704 -11123.619 2981.704 Z  M -11102.377 2979.156 C -11104.723 2979.156 -11106.625 2981.437 -11106.625 2984.252 C -11106.625 2987.067 -11104.723 2989.348 -11102.377 2989.348 C -11100.03 2989.348 -11098.129 2985.366 -11098.129 2982.55 C -11098.129 2979.742 -11100.03 2979.156 -11102.377 2979.156 Z  M -11123.619 2979.156 C -11125.966 2979.156 -11127.867 2979.742 -11127.867 2982.55 C -11127.867 2985.366 -11125.966 2989.348 -11123.619 2989.348 C -11121.272 2989.348 -11119.37 2987.067 -11119.37 2984.252 C -11119.37 2981.437 -11121.272 2979.156 -11123.619 2979.156 Z " fill="rgb(71,136,199)"/><path d=" M -11112.998 3000.815 C -11113.856 3000.806 -11114.666 3000.344 -11115.213 2999.551 L -11115.436 2999.223 L -11115.776 2999.121 C -11121.006 2997.602 -11124.688 2991.981 -11124.681 2985.526 L -11124.681 2972.128 C -11124.681 2968.815 -11122.431 2966.114 -11119.668 2966.114 L -11106.328 2966.114 C -11103.565 2966.114 -11101.315 2968.815 -11101.315 2972.128 L -11101.315 2985.526 C -11101.315 2991.998 -11104.983 2997.579 -11110.217 2999.123 L -11110.557 2999.223 L -11110.782 2999.551 C -11111.329 3000.344 -11112.14 3000.807 -11112.998 3000.815 Z " fill="rgb(255,255,255)"/><path d=" M -11101.315 2985.526 L -11101.315 2981.704 C -11101.315 2974.816 -11105.963 2971.142 -11106.16 2970.984 L -11106.865 2970.446 L -11107.471 2971.134 C -11107.496 2971.162 -11110.683 2974.646 -11117.38 2974.646 C -11121.012 2974.646 -11124.681 2977.265 -11124.681 2983.098 L -11124.681 2985.526 L -11124.929 2985.526 C -11125.46 2983.136 -11126.805 2976.557 -11126.805 2971.511 C -11126.805 2964.545 -11122.3 2957.496 -11113.695 2957.496 C -11109.081 2957.496 -11107.671 2961.607 -11107.613 2961.777 L -11107.348 2962.583 L -11106.625 2962.593 C -11103.505 2962.593 -11099.191 2965.747 -11099.191 2971.68 C -11099.191 2976.299 -11100.544 2983.07 -11101.075 2985.526 L -11101.315 2985.526 Z " fill="rgb(152,204,253)"/><path d=" M -11116.15 3036.489 C -11115.604 3026.546 -11108.684 3018.652 -11100.253 3018.652 L -11087.508 3018.652 C -11079.077 3018.652 -11072.157 3026.546 -11071.611 3036.489 L -11116.15 3036.489 Z " fill="rgb(182,220,254)"/><path d=" M -11101.315 3019.478 L -11101.315 3011.008 L -11086.446 3011.008 L -11086.446 3019.478 L -11093.881 3026.564 L -11101.315 3019.478 Z " fill="rgb(255,255,255)"/><path d=" M -11089.632 3020.912 L -11093.881 3022.474 L -11098.129 3020.912 L -11095.266 3026.952 L -11098.178 3037.763 L -11089.583 3037.763 L -11092.493 3026.954 L -11089.632 3020.912 Z " fill="rgb(71,136,199)"/><path d=" M -11083.26 3003.363 C -11085.02 3003.363 -11086.446 3001.652 -11086.446 2999.541 C -11086.446 2997.43 -11085.02 2995.719 -11083.26 2995.719 C -11080.314 2995.719 -11080.074 2996.725 -11080.074 2997.839 C -11080.074 3000.147 -11081.684 3003.363 -11083.26 3003.363 Z  M -11104.501 3003.363 C -11106.077 3003.363 -11107.688 3000.147 -11107.688 2997.839 C -11107.688 2996.725 -11107.447 2995.719 -11104.501 2995.719 C -11102.742 2995.719 -11101.315 2997.43 -11101.315 2999.541 C -11101.315 3001.652 -11102.742 3003.363 -11104.501 3003.363 Z " fill="rgb(182,220,254)"/><path d=" M -11083.26 2996.993 C -11081.51 2996.993 -11081.193 2997.39 -11081.185 2997.39 C -11081.146 2997.535 -11081.13 2997.687 -11081.136 2997.839 C -11081.136 2999.681 -11082.472 3002.089 -11083.26 3002.089 C -11084.428 3002.089 -11085.384 3000.943 -11085.384 2999.541 C -11085.384 2998.14 -11084.428 2996.993 -11083.26 2996.993 Z  M -11104.501 2996.993 C -11103.333 2996.993 -11102.377 2998.14 -11102.377 2999.541 C -11102.377 3000.943 -11103.333 3002.089 -11104.501 3002.089 C -11105.289 3002.089 -11106.625 2999.681 -11106.625 2997.839 C -11106.625 2997.559 -11106.583 2997.411 -11106.577 2997.39 C -11106.568 2997.39 -11106.252 2996.993 -11104.501 2996.993 Z  M -11083.26 2994.445 C -11085.606 2994.445 -11087.508 2996.726 -11087.508 2999.541 C -11087.508 3002.356 -11085.606 3004.637 -11083.26 3004.637 C -11080.913 3004.637 -11079.012 3000.655 -11079.012 2997.839 C -11079.012 2995.031 -11080.913 2994.445 -11083.26 2994.445 Z  M -11104.501 2994.445 C -11106.848 2994.445 -11108.75 2995.031 -11108.75 2997.839 C -11108.75 3000.655 -11106.848 3004.637 -11104.501 3004.637 C -11102.155 3004.637 -11100.253 3002.356 -11100.253 2999.541 C -11100.253 2996.726 -11102.155 2994.445 -11104.501 2994.445 Z " fill="rgb(71,136,199)"/><path d=" M -11093.881 3016.104 C -11094.738 3016.095 -11095.549 3015.633 -11096.096 3014.84 L -11096.319 3014.511 L -11096.659 3014.41 C -11101.889 3012.89 -11105.57 3007.27 -11105.563 3000.815 L -11105.563 2987.417 C -11105.563 2984.104 -11103.314 2981.403 -11100.55 2981.403 L -11087.211 2981.403 C -11084.447 2981.403 -11082.198 2984.104 -11082.198 2987.417 L -11082.198 3000.815 C -11082.198 3007.287 -11085.866 3012.868 -11091.1 3014.412 L -11091.44 3014.511 L -11091.665 3014.84 C -11092.212 3015.633 -11093.023 3016.096 -11093.881 3016.104 Z " fill="rgb(255,255,255)"/><path d=" M -11082.198 3000.815 L -11082.198 2996.993 C -11082.198 2990.105 -11086.845 2986.431 -11087.043 2986.273 L -11087.748 2985.735 L -11088.354 2986.423 C -11088.379 2986.451 -11091.565 2989.934 -11098.263 2989.934 C -11101.895 2989.934 -11105.563 2992.554 -11105.563 2998.387 L -11105.563 3000.815 L -11105.812 3000.815 C -11106.343 2998.425 -11107.688 2991.846 -11107.688 2986.8 C -11107.688 2979.834 -11103.182 2972.785 -11094.577 2972.785 C -11089.964 2972.785 -11088.553 2976.896 -11088.496 2977.066 L -11088.23 2977.872 L -11087.508 2977.882 C -11084.388 2977.882 -11080.074 2981.036 -11080.074 2986.968 C -11080.074 2991.588 -11081.427 2998.359 -11081.958 3000.815 L -11082.198 3000.815 Z " fill="rgb(182,220,254)"/></g></svg>