<?xml version="1.0" standalone="no"?><!-- Generator: Gravit.io --><svg xmlns="http://www.w3.org/2000/svg" xmlns:xlink="http://www.w3.org/1999/xlink" style="isolation:isolate" viewBox="-11288.775 2931.357 121.627 134.311" width="121.627" height="134.311"><g id="doctor"><linearGradient id="_lgradient_8" x1="12.256000184321833%" y1="3.039441310532176%" x2="81.98080317803222%" y2="82.12228816769036%"><stop offset="0%" stop-opacity="1" style="stop-color:rgb(188,201,210)"/><stop offset="100%" stop-opacity="1" style="stop-color:rgb(171,203,242)"/></linearGradient><path d=" M -11182.942 3043.318 L -11182.942 3043.318 C -11191.049 3048.441 -11204.213 3056.163 -11212.322 3060.552 L -11212.322 3060.552 C -11220.431 3064.942 -11233.779 3064.676 -11242.111 3059.959 L -11242.111 3059.959 C -11250.443 3055.242 -11263.476 3047.283 -11271.197 3042.197 L -11271.197 3042.197 C -11278.918 3037.111 -11285.37 3024.993 -11285.596 3015.153 L -11285.596 3015.153 C -11285.822 3005.314 -11285.69 2989.633 -11285.302 2980.157 L -11285.302 2980.157 C -11284.914 2970.681 -11278.018 2958.83 -11269.912 2953.707 L -11269.912 2953.707 C -11261.806 2948.584 -11248.641 2940.862 -11240.532 2936.473 L -11240.532 2936.473 C -11232.423 2932.083 -11219.075 2932.349 -11210.743 2937.066 L -11210.743 2937.066 C -11202.411 2941.783 -11189.378 2949.742 -11181.657 2954.828 L -11181.657 2954.828 C -11173.936 2959.914 -11167.484 2972.032 -11167.258 2981.872 L -11167.258 2981.872 C -11167.033 2991.711 -11167.164 3007.392 -11167.552 3016.868 L -11167.552 3016.868 C -11167.94 3026.343 -11174.836 3038.195 -11182.942 3043.318 Z " fill="url(#_lgradient_8)"/><linearGradient id="_lgradient_9" x1="12.256000184321833%" y1="3.039441310532176%" x2="81.98080317803222%" y2="82.12228816769036%"><stop offset="0%" stop-opacity="1" style="stop-color:rgb(0,153,255)"/><stop offset="100%" stop-opacity="1" style="stop-color:rgb(0,90,199)"/></linearGradient><path d=" M -11179.648 3039.379 L -11192.115 3047.257 C -11196.781 3050.206 -11204.509 3054.732 -11209.363 3057.36 L -11221.16 3063.745 C -11226.013 3066.372 -11233.853 3066.298 -11238.656 3063.579 L -11251.445 3056.339 C -11256.247 3053.62 -11263.889 3048.947 -11268.498 3045.911 L -11279.775 3038.482 C -11284.384 3035.446 -11288.228 3028.502 -11288.355 3022.984 L -11288.715 3007.323 C -11288.841 3001.805 -11288.761 2992.848 -11288.535 2987.334 L -11287.947 2972.98 C -11287.721 2967.466 -11283.75 2960.595 -11279.085 2957.646 L -11266.617 2949.768 C -11261.952 2946.819 -11254.223 2942.292 -11249.369 2939.665 L -11237.573 2933.28 C -11232.719 2930.653 -11224.879 2930.727 -11220.076 2933.446 L -11207.288 2940.686 C -11202.485 2943.405 -11194.844 2948.077 -11190.235 2951.114 L -11178.958 2958.542 C -11174.349 2961.579 -11170.504 2968.523 -11170.377 2974.041 L -11170.018 2989.702 C -11169.891 2995.22 -11169.972 3004.177 -11170.197 3009.691 L -11170.785 3024.045 C -11171.011 3029.559 -11174.982 3036.43 -11179.648 3039.379 Z " fill="url(#_lgradient_9)"/><g id="Group"><path d=" M -11245.668 2982.685 L -11213.064 2982.685 L -11213.064 3016.715 L -11245.668 3016.715 L -11245.668 2982.685 Z " fill="rgb(46,91,136)"/><path d=" M -11239.555 3003.481 L -11219.178 3003.481 L -11219.178 3031.839 L -11239.555 3031.839 L -11239.555 3003.481 Z " fill="rgb(255,255,255)"/><path d=" M -11211.027 2980.794 C -11211.027 2966.356 -11247.706 2971.393 -11247.706 2980.794 L -11247.706 2994.028 C -11247.706 3003.43 -11239.5 3011.043 -11229.366 3011.043 C -11219.233 3011.043 -11211.027 3003.43 -11211.027 2994.028 L -11211.027 2980.794 Z " fill="rgb(255,255,255)" vector-effect="non-scaling-stroke" stroke-width="1" stroke="rgb(0,94,202)" stroke-linejoin="miter" stroke-linecap="butt" stroke-miterlimit="4"/><path d=" M -11229.621 2961.889 C -11241.998 2961.889 -11259.932 2967.782 -11259.932 3005.371 L -11245.668 3014.824 L -11245.668 2990.247 L -11221.215 2977.013 L -11213.064 2986.466 L -11213.064 3014.824 L -11200.838 3003.481 C -11200.838 2995.875 -11200.43 2965.67 -11221.47 2965.67 L -11223.508 2961.889 L -11229.621 2961.889 Z " fill="rgb(182,220,254)"/><path d=" M -11223.253 2994.028 C -11223.253 2992.988 -11222.336 2992.138 -11221.215 2992.138 C -11220.095 2992.138 -11219.178 2992.988 -11219.178 2994.028 C -11219.178 2995.068 -11220.095 2995.919 -11221.215 2995.919 C -11222.336 2995.919 -11223.253 2995.068 -11223.253 2994.028 Z  M -11239.555 2994.028 C -11239.555 2995.068 -11238.638 2995.919 -11237.517 2995.919 C -11236.396 2995.919 -11235.479 2995.068 -11235.479 2994.028 C -11235.479 2992.988 -11236.396 2992.138 -11237.517 2992.138 C -11238.638 2992.138 -11239.555 2992.988 -11239.555 2994.028 Z " fill="rgb(71,136,199)"/><linearGradient id="_lgradient_10" x1="161.09531549989808%" y1="141.6216565750003%" x2="-58.286034047250745%" y2="-57.64335751394496%"><stop offset="0%" stop-opacity="1" style="stop-color:rgb(103,178,232)"/><stop offset="33.04347826086956%" stop-opacity="1" style="stop-color:rgb(160,207,241)"/><stop offset="46.52173913043478%" stop-opacity="1" style="stop-color:rgb(209,232,248)"/><stop offset="100%" stop-opacity="1" style="stop-color:rgb(255,255,255)"/></linearGradient><path d=" M -11213.319 2961.889 C -11213.319 2961.889 -11214.847 2958.108 -11228.857 2958.108 C -11228.857 2958.108 -11245.923 2961.889 -11245.923 2961.889 C -11245.923 2961.889 -11247.961 2973.232 -11247.961 2980.794 C -11247.961 2980.794 -11239.555 2978.904 -11229.366 2978.904 C -11219.178 2978.904 -11211.281 2980.794 -11211.281 2980.794 C -11211.281 2973.232 -11213.319 2961.889 -11213.319 2961.889 Z  M -11196.762 3037.511 L -11261.97 3037.511 C -11261.97 3016.684 -11239.555 3012.934 -11239.555 3012.934 L -11239.555 3014.824 L -11229.366 3029.948 L -11219.178 3014.824 L -11219.178 3012.934 C -11219.178 3012.934 -11196.762 3016.758 -11196.762 3037.511 Z " fill="url(#_lgradient_10)"/><path d=" M -11213.097 3024.513 C -11213.352 3017.579 -11215.127 3012.557 -11215.237 3012.255 C -11215.944 3010.51 -11216.801 3008.821 -11217.8 3007.203 C -11218.246 3007.544 -11218.701 3007.874 -11219.178 3008.169 L -11219.178 3013.287 C -11219.145 3013.368 -11219.106 3013.45 -11219.076 3013.533 C -11219.057 3013.584 -11217.435 3018.184 -11217.181 3024.528 C -11221.924 3025.695 -11223.253 3030.843 -11223.253 3033.73 L -11219.178 3033.737 C -11219.178 3033.501 -11219.09 3028.058 -11215.102 3028.058 C -11211.114 3028.058 -11211.027 3033.501 -11211.027 3033.73 L -11206.951 3033.73 C -11206.951 3030.828 -11208.296 3025.651 -11213.097 3024.513 Z  M -11239.555 3008.177 C -11239.85 3007.994 -11240.128 3007.772 -11240.415 3007.572 C -11242.127 3009.655 -11243.247 3011.567 -11243.527 3012.336 C -11244.578 3015.267 -11245.668 3018.303 -11245.668 3026.167 C -11245.668 3027.207 -11244.751 3028.058 -11243.63 3028.058 C -11242.51 3028.058 -11241.593 3027.207 -11241.593 3026.167 C -11241.593 3018.908 -11240.655 3016.301 -11239.657 3013.531 C -11239.629 3013.45 -11239.595 3013.371 -11239.555 3013.295 L -11239.555 3008.177 Z " fill="rgb(71,136,199)"/><path d=" M -11237.517 3029.948 C -11237.518 3031.975 -11238.684 3033.848 -11240.577 3034.861 C -11242.469 3035.874 -11244.8 3035.873 -11246.692 3034.859 C -11248.584 3033.845 -11249.748 3031.972 -11249.748 3029.945 C -11249.747 3026.811 -11247.008 3024.272 -11243.63 3024.273 C -11240.253 3024.274 -11237.516 3026.815 -11237.517 3029.948 L -11237.517 3029.948 Z " fill="rgb(71,136,199)"/><path d=" M -11219.178 3037.511 L -11223.253 3037.511 L -11223.253 3033.73 L -11219.178 3033.73 L -11219.178 3037.511 Z  M -11206.951 3033.73 L -11211.027 3033.73 L -11211.027 3037.511 L -11206.951 3037.511 L -11206.951 3033.73 Z  M -11243.63 3031.839 C -11242.505 3031.839 -11241.593 3030.993 -11241.593 3029.948 C -11241.593 3028.904 -11242.505 3028.058 -11243.63 3028.058 C -11244.761 3028.058 -11245.668 3028.899 -11245.668 3029.948 C -11245.668 3030.998 -11244.761 3031.839 -11243.63 3031.839 Z " fill="rgb(207,216,220)"/></g></g></svg>