<?xml version="1.0" standalone="no"?><!-- Generator: Gravit.io --><svg xmlns="http://www.w3.org/2000/svg" xmlns:xlink="http://www.w3.org/1999/xlink" style="isolation:isolate" viewBox="-12276.061 2183 416.398 120" width="416.398" height="120"><g id="Group"><g id="doctor"><linearGradient id="_lgradient_26" x1="12.256000184321833%" y1="3.039441310532176%" x2="81.98080317803222%" y2="82.12228816769036%"><stop offset="0%" stop-opacity="1" style="stop-color:rgb(188,201,210)"/><stop offset="100%" stop-opacity="1" style="stop-color:rgb(171,203,242)"/></linearGradient><path d=" M -12227.902 2293.11 L -12227.902 2293.11 C -12231.595 2295.599 -12237.593 2299.35 -12241.288 2301.482 L -12241.288 2301.482 C -12244.982 2303.614 -12251.064 2303.485 -12254.86 2301.193 L -12254.86 2301.193 C -12258.656 2298.902 -12264.594 2295.036 -12268.111 2292.566 L -12268.111 2292.566 C -12271.629 2290.095 -12274.568 2284.209 -12274.671 2279.43 L -12274.671 2279.43 C -12274.774 2274.651 -12274.714 2267.034 -12274.537 2262.431 L -12274.537 2262.431 C -12274.361 2257.828 -12271.219 2252.071 -12267.526 2249.583 L -12267.526 2249.583 C -12263.832 2247.095 -12257.835 2243.344 -12254.14 2241.212 L -12254.14 2241.212 C -12250.446 2239.08 -12244.364 2239.209 -12240.568 2241.5 L -12240.568 2241.5 C -12236.772 2243.791 -12230.834 2247.657 -12227.317 2250.128 L -12227.317 2250.128 C -12223.799 2252.598 -12220.86 2258.484 -12220.757 2263.264 L -12220.757 2263.264 C -12220.654 2268.043 -12220.714 2275.66 -12220.89 2280.263 L -12220.89 2280.263 C -12221.067 2284.865 -12224.209 2290.622 -12227.902 2293.11 Z " fill="url(#_lgradient_26)"/><linearGradient id="_lgradient_27" x1="12.256000184321833%" y1="3.039441310532176%" x2="81.98080317803222%" y2="82.12228816769036%"><stop offset="0%" stop-opacity="1" style="stop-color:rgb(0,153,255)"/><stop offset="100%" stop-opacity="1" style="stop-color:rgb(0,90,199)"/></linearGradient><path d=" M -12229.241 2293.11 L -12229.241 2293.11 C -12232.934 2295.599 -12238.932 2299.35 -12242.627 2301.482 L -12242.627 2301.482 C -12246.321 2303.614 -12252.403 2303.485 -12256.199 2301.193 L -12256.199 2301.193 C -12259.995 2298.902 -12265.933 2295.036 -12269.45 2292.566 L -12269.45 2292.566 C -12272.968 2290.095 -12275.907 2284.209 -12276.01 2279.43 L -12276.01 2279.43 C -12276.113 2274.651 -12276.053 2267.034 -12275.877 2262.431 L -12275.877 2262.431 C -12275.7 2257.828 -12272.558 2252.071 -12268.865 2249.583 L -12268.865 2249.583 C -12265.172 2247.095 -12259.174 2243.344 -12255.479 2241.212 L -12255.479 2241.212 C -12251.785 2239.08 -12245.703 2239.209 -12241.907 2241.5 L -12241.907 2241.5 C -12238.111 2243.791 -12232.173 2247.657 -12228.656 2250.128 L -12228.656 2250.128 C -12225.138 2252.598 -12222.199 2258.484 -12222.096 2263.264 L -12222.096 2263.264 C -12221.993 2268.043 -12222.053 2275.66 -12222.23 2280.263 L -12222.23 2280.263 C -12222.406 2284.865 -12225.548 2290.622 -12229.241 2293.11 Z " fill="url(#_lgradient_27)"/><g id="Group"><path d=" M -12256.48 2263.659 L -12241.626 2263.659 L -12241.626 2280.188 L -12256.48 2280.188 L -12256.48 2263.659 Z " fill="rgb(46,91,136)"/><path d=" M -12253.695 2273.76 L -12244.411 2273.76 L -12244.411 2287.535 L -12253.695 2287.535 L -12253.695 2273.76 Z " fill="rgb(255,255,255)"/><path d=" M -12240.697 2262.741 C -12240.697 2255.727 -12257.409 2258.174 -12257.409 2262.741 L -12257.409 2269.169 C -12257.409 2273.735 -12253.67 2277.433 -12249.053 2277.433 C -12244.436 2277.433 -12240.697 2273.735 -12240.697 2269.169 L -12240.697 2262.741 Z " fill="rgb(255,255,255)" vector-effect="non-scaling-stroke" stroke-width="1" stroke="rgb(0,94,202)" stroke-linejoin="miter" stroke-linecap="butt" stroke-miterlimit="4"/><path d=" M -12249.169 2253.558 C -12254.808 2253.558 -12262.979 2256.42 -12262.979 2274.678 L -12256.48 2279.27 L -12256.48 2267.332 L -12245.339 2260.904 L -12241.626 2265.495 L -12241.626 2279.27 L -12236.055 2273.76 C -12236.055 2270.066 -12235.87 2255.394 -12245.456 2255.394 L -12246.384 2253.558 L -12249.169 2253.558 Z " fill="rgb(182,220,254)"/><path d=" M -12246.268 2269.169 C -12246.268 2268.664 -12245.85 2268.25 -12245.339 2268.25 C -12244.829 2268.25 -12244.411 2268.664 -12244.411 2269.169 C -12244.411 2269.674 -12244.829 2270.087 -12245.339 2270.087 C -12245.85 2270.087 -12246.268 2269.674 -12246.268 2269.169 Z  M -12253.695 2269.169 C -12253.695 2269.674 -12253.277 2270.087 -12252.767 2270.087 C -12252.256 2270.087 -12251.838 2269.674 -12251.838 2269.169 C -12251.838 2268.664 -12252.256 2268.25 -12252.767 2268.25 C -12253.277 2268.25 -12253.695 2268.664 -12253.695 2269.169 Z " fill="rgb(71,136,199)"/><linearGradient id="_lgradient_28" x1="161.09531549989808%" y1="141.6216565750003%" x2="-58.286034047250745%" y2="-57.64335751394496%"><stop offset="0%" stop-opacity="1" style="stop-color:rgb(103,178,232)"/><stop offset="33.04347826086956%" stop-opacity="1" style="stop-color:rgb(160,207,241)"/><stop offset="46.52173913043478%" stop-opacity="1" style="stop-color:rgb(209,232,248)"/><stop offset="100%" stop-opacity="1" style="stop-color:rgb(255,255,255)"/></linearGradient><path d=" M -12241.742 2253.558 C -12241.742 2253.558 -12242.438 2251.721 -12248.821 2251.721 C -12248.821 2251.721 -12256.596 2253.558 -12256.596 2253.558 C -12256.596 2253.558 -12257.525 2259.067 -12257.525 2262.741 C -12257.525 2262.741 -12253.695 2261.822 -12249.053 2261.822 C -12244.411 2261.822 -12240.814 2262.741 -12240.814 2262.741 C -12240.814 2259.067 -12241.742 2253.558 -12241.742 2253.558 Z  M -12234.199 2290.29 L -12263.907 2290.29 C -12263.907 2280.174 -12253.695 2278.352 -12253.695 2278.352 L -12253.695 2279.27 L -12249.053 2286.616 L -12244.411 2279.27 L -12244.411 2278.352 C -12244.411 2278.352 -12234.199 2280.209 -12234.199 2290.29 Z " fill="url(#_lgradient_28)"/><path d=" M -12241.641 2283.976 C -12241.757 2280.608 -12242.565 2278.169 -12242.616 2278.022 C -12242.938 2277.174 -12243.328 2276.354 -12243.783 2275.568 C -12243.987 2275.734 -12244.194 2275.894 -12244.411 2276.038 L -12244.411 2278.523 C -12244.396 2278.563 -12244.379 2278.602 -12244.365 2278.643 C -12244.356 2278.668 -12243.617 2280.902 -12243.501 2283.984 C -12245.663 2284.55 -12246.268 2287.051 -12246.268 2288.453 L -12244.411 2288.457 C -12244.411 2288.342 -12244.371 2285.698 -12242.554 2285.698 C -12240.737 2285.698 -12240.697 2288.342 -12240.697 2288.453 L -12238.841 2288.453 C -12238.841 2287.043 -12239.453 2284.529 -12241.641 2283.976 Z  M -12253.695 2276.041 C -12253.83 2275.952 -12253.956 2275.845 -12254.087 2275.747 C -12254.867 2276.759 -12255.377 2277.688 -12255.504 2278.061 C -12255.984 2279.485 -12256.48 2280.96 -12256.48 2284.78 C -12256.48 2285.285 -12256.062 2285.698 -12255.552 2285.698 C -12255.041 2285.698 -12254.623 2285.285 -12254.623 2284.78 C -12254.623 2281.254 -12254.196 2279.987 -12253.741 2278.642 C -12253.729 2278.603 -12253.713 2278.564 -12253.695 2278.527 L -12253.695 2276.041 Z " fill="rgb(71,136,199)"/><path d=" M -12252.767 2286.616 C -12252.767 2287.601 -12253.298 2288.511 -12254.16 2289.003 C -12255.023 2289.495 -12256.085 2289.494 -12256.947 2289.002 C -12257.808 2288.509 -12258.339 2287.599 -12258.339 2286.615 C -12258.338 2285.093 -12257.091 2283.859 -12255.552 2283.86 C -12254.013 2283.86 -12252.766 2285.094 -12252.767 2286.616 L -12252.767 2286.616 Z " fill="rgb(71,136,199)"/><path d=" M -12244.411 2290.29 L -12246.268 2290.29 L -12246.268 2288.453 L -12244.411 2288.453 L -12244.411 2290.29 Z  M -12238.841 2288.453 L -12240.697 2288.453 L -12240.697 2290.29 L -12238.841 2290.29 L -12238.841 2288.453 Z  M -12255.552 2287.535 C -12255.039 2287.535 -12254.623 2287.124 -12254.623 2286.616 C -12254.623 2286.109 -12255.039 2285.698 -12255.552 2285.698 C -12256.067 2285.698 -12256.48 2286.107 -12256.48 2286.616 C -12256.48 2287.126 -12256.067 2287.535 -12255.552 2287.535 Z " fill="rgb(207,216,220)"/></g></g><g id="pharmacy"><linearGradient id="_lgradient_29" x1="12.256000184321833%" y1="3.039441310532176%" x2="81.98080317803222%" y2="82.12228816769036%"><stop offset="0%" stop-opacity="1" style="stop-color:rgb(188,201,210)"/><stop offset="100%" stop-opacity="1" style="stop-color:rgb(171,203,242)"/></linearGradient><path d=" M -12200.103 2236.758 L -12200.103 2236.758 C -12203.796 2239.247 -12209.794 2242.998 -12213.488 2245.13 L -12213.488 2245.13 C -12217.182 2247.262 -12223.264 2247.133 -12227.06 2244.841 L -12227.06 2244.841 C -12230.856 2242.55 -12236.794 2238.684 -12240.311 2236.214 L -12240.311 2236.214 C -12243.829 2233.743 -12246.769 2227.857 -12246.872 2223.078 L -12246.872 2223.078 C -12246.975 2218.298 -12246.915 2210.681 -12246.738 2206.079 L -12246.738 2206.079 C -12246.561 2201.476 -12243.419 2195.719 -12239.726 2193.231 L -12239.726 2193.231 C -12236.033 2190.743 -12230.035 2186.992 -12226.34 2184.86 L -12226.34 2184.86 C -12222.646 2182.728 -12216.565 2182.857 -12212.769 2185.148 L -12212.769 2185.148 C -12208.973 2187.439 -12203.035 2191.305 -12199.517 2193.776 L -12199.517 2193.776 C -12195.999 2196.246 -12193.06 2202.132 -12192.957 2206.912 L -12192.957 2206.912 C -12192.854 2211.691 -12192.914 2219.308 -12193.091 2223.911 L -12193.091 2223.911 C -12193.268 2228.513 -12196.409 2234.27 -12200.103 2236.758 Z " fill="url(#_lgradient_29)"/><linearGradient id="_lgradient_30" x1="12.256000184321833%" y1="3.039441310532176%" x2="81.98080317803222%" y2="82.12228816769036%"><stop offset="0%" stop-opacity="1" style="stop-color:rgb(0,153,255)"/><stop offset="100%" stop-opacity="1" style="stop-color:rgb(0,90,199)"/></linearGradient><path d=" M -12201.442 2236.417 L -12201.442 2236.417 C -12205.135 2238.905 -12211.133 2242.656 -12214.827 2244.788 L -12214.827 2244.788 C -12218.522 2246.92 -12224.603 2246.791 -12228.399 2244.5 L -12228.399 2244.5 C -12232.195 2242.209 -12238.133 2238.343 -12241.651 2235.872 L -12241.651 2235.872 C -12245.168 2233.402 -12248.108 2227.516 -12248.211 2222.736 L -12248.211 2222.736 C -12248.314 2217.957 -12248.254 2210.34 -12248.077 2205.737 L -12248.077 2205.737 C -12247.9 2201.135 -12244.758 2195.378 -12241.065 2192.89 L -12241.065 2192.89 C -12237.372 2190.401 -12231.374 2186.65 -12227.68 2184.518 L -12227.68 2184.518 C -12223.985 2182.386 -12217.904 2182.515 -12214.108 2184.807 L -12214.108 2184.807 C -12210.312 2187.098 -12204.374 2190.964 -12200.856 2193.434 L -12200.856 2193.434 C -12197.338 2195.905 -12194.399 2201.791 -12194.296 2206.57 L -12194.296 2206.57 C -12194.193 2211.349 -12194.253 2218.966 -12194.43 2223.569 L -12194.43 2223.569 C -12194.607 2228.172 -12197.749 2233.929 -12201.442 2236.417 Z " fill="url(#_lgradient_30)"/><linearGradient id="_lgradient_31" x1="188.66979161507692%" y1="-100.98106549671009%" x2="-85.92502591468718%" y2="206.01653678160966%"><stop offset="0%" stop-opacity="1" style="stop-color:rgb(255,255,255)"/><stop offset="18.695652173913043%" stop-opacity="1" style="stop-color:rgb(253,253,253)"/><stop offset="37.391304347826086%" stop-opacity="1" style="stop-color:rgb(252,254,255)"/><stop offset="46.74720182739094%" stop-opacity="1" style="stop-color:rgb(252,254,255)"/><stop offset="49.9187611292604%" stop-opacity="1" style="stop-color:rgb(252,254,255)"/><stop offset="62.76961092672367%" stop-opacity="1" style="stop-color:rgb(159,210,247)"/><stop offset="81.30434782608695%" stop-opacity="1" style="stop-color:rgb(163,212,247)"/><stop offset="99.19067926225905%" stop-opacity="1" style="stop-color:rgb(130,197,244)"/><stop offset="100%" stop-opacity="1" style="stop-color:rgb(128,196,244)"/></linearGradient><path d=" M -12228.314 2197.645 C -12225.985 2197.645 -12223.661 2198.583 -12221.881 2200.452 C -12221.655 2200.695 -12218.787 2203.668 -12216.114 2206.48 L -12207.76 2215.272 C -12204.205 2219.013 -12204.205 2225.113 -12207.76 2228.854 C -12209.479 2230.655 -12211.806 2231.664 -12214.232 2231.662 C -12216.561 2231.662 -12218.885 2230.724 -12220.665 2228.854 C -12220.945 2228.554 -12225.117 2224.168 -12229.019 2220.061 C -12231.702 2217.238 -12234.507 2214.244 -12234.747 2213.992 C -12236.454 2212.197 -12237.413 2209.761 -12237.413 2207.221 C -12237.413 2204.682 -12236.454 2202.246 -12234.747 2200.451 C -12233.042 2198.652 -12230.727 2197.643 -12228.314 2197.645 Z  M -12228.314 2200.287 C -12230.074 2200.287 -12231.737 2201 -12232.982 2202.31 C -12235.551 2205.014 -12235.546 2209.43 -12232.982 2212.136 C -12232.741 2212.388 -12229.898 2215.341 -12227.216 2218.163 L -12220.155 2210.731 L -12208.113 2223.406 C -12207.049 2220.356 -12209.877 2216.883 -12209.877 2216.883 L -12217.919 2208.379 C -12220.592 2205.566 -12223.421 2202.547 -12223.646 2202.31 C -12224.883 2201.007 -12226.564 2200.278 -12228.314 2200.287 Z " fill="url(#_lgradient_31)"/></g><g id="citicen"><linearGradient id="_lgradient_32" x1="12.256000184321833%" y1="3.039441310532176%" x2="81.98080317803222%" y2="82.12228816769036%"><stop offset="0%" stop-opacity="1" style="stop-color:rgb(188,201,210)"/><stop offset="100%" stop-opacity="1" style="stop-color:rgb(171,203,242)"/></linearGradient><path d=" M -12166.831 2292.714 L -12166.831 2292.714 C -12170.524 2295.202 -12176.522 2298.953 -12180.216 2301.085 L -12180.216 2301.085 C -12183.911 2303.217 -12189.992 2303.088 -12193.788 2300.797 L -12193.788 2300.797 C -12197.584 2298.506 -12203.522 2294.64 -12207.04 2292.169 L -12207.04 2292.169 C -12210.557 2289.699 -12213.497 2283.813 -12213.6 2279.033 L -12213.6 2279.033 C -12213.703 2274.254 -12213.643 2266.637 -12213.466 2262.034 L -12213.466 2262.034 C -12213.289 2257.432 -12210.147 2251.675 -12206.454 2249.187 L -12206.454 2249.187 C -12202.761 2246.699 -12196.763 2242.947 -12193.069 2240.815 L -12193.069 2240.815 C -12189.374 2238.683 -12183.293 2238.812 -12179.497 2241.104 L -12179.497 2241.104 C -12175.701 2243.395 -12169.763 2247.261 -12166.245 2249.731 L -12166.245 2249.731 C -12162.727 2252.202 -12159.788 2258.088 -12159.685 2262.867 L -12159.685 2262.867 C -12159.582 2267.647 -12159.642 2275.264 -12159.819 2279.866 L -12159.819 2279.866 C -12159.996 2284.469 -12163.138 2290.226 -12166.831 2292.714 Z " fill="url(#_lgradient_32)"/><linearGradient id="_lgradient_33" x1="12.256000184321833%" y1="3.039441310532176%" x2="81.98080317803222%" y2="82.12228816769036%"><stop offset="0%" stop-opacity="1" style="stop-color:rgb(0,153,255)"/><stop offset="100%" stop-opacity="1" style="stop-color:rgb(0,90,199)"/></linearGradient><path d=" M -12168.479 2292.714 L -12168.479 2292.714 C -12172.173 2295.202 -12178.17 2298.953 -12181.865 2301.085 L -12181.865 2301.085 C -12185.559 2303.217 -12191.641 2303.088 -12195.437 2300.797 L -12195.437 2300.797 C -12199.233 2298.506 -12205.171 2294.64 -12208.688 2292.169 L -12208.688 2292.169 C -12212.206 2289.699 -12215.146 2283.813 -12215.248 2279.033 L -12215.248 2279.033 C -12215.351 2274.254 -12215.291 2266.637 -12215.115 2262.034 L -12215.115 2262.034 C -12214.938 2257.432 -12211.796 2251.675 -12208.103 2249.187 L -12208.103 2249.187 C -12204.41 2246.699 -12198.412 2242.947 -12194.717 2240.815 L -12194.717 2240.815 C -12191.023 2238.683 -12184.942 2238.812 -12181.145 2241.104 L -12181.145 2241.104 C -12177.349 2243.395 -12171.412 2247.261 -12167.894 2249.731 L -12167.894 2249.731 C -12164.376 2252.202 -12161.437 2258.088 -12161.334 2262.867 L -12161.334 2262.867 C -12161.231 2267.647 -12161.291 2275.264 -12161.468 2279.866 L -12161.468 2279.866 C -12161.644 2284.469 -12164.786 2290.226 -12168.479 2292.714 Z " fill="url(#_lgradient_33)"/><path d=" M -12206.181 2282.367 C -12205.933 2277.538 -12202.78 2273.703 -12198.939 2273.703 L -12193.132 2273.703 C -12189.291 2273.703 -12186.138 2277.538 -12185.889 2282.367 L -12206.181 2282.367 Z " fill="rgb(152,204,253)"/><path d=" M -12196.035 2276.178 C -12198.617 2276.178 -12199.309 2274.371 -12199.423 2273.993 L -12199.423 2269.685 L -12192.648 2269.685 L -12192.648 2273.993 C -12192.765 2274.375 -12193.453 2276.178 -12196.035 2276.178 Z " fill="rgb(255,255,255)"/><path d=" M -12188.762 2282.367 C -12188.513 2277.538 -12185.36 2273.703 -12181.519 2273.703 L -12175.712 2273.703 C -12171.871 2273.703 -12168.718 2277.538 -12168.47 2282.367 L -12188.762 2282.367 Z " fill="rgb(152,204,253)"/><path d=" M -12178.616 2276.178 C -12181.198 2276.178 -12181.89 2274.371 -12182.003 2273.993 L -12182.003 2269.685 L -12175.228 2269.685 L -12175.228 2273.993 C -12175.346 2274.375 -12176.034 2276.178 -12178.616 2276.178 Z " fill="rgb(255,255,255)"/><path d=" M -12173.777 2266.277 C -12174.579 2266.277 -12175.228 2265.445 -12175.228 2264.42 C -12175.228 2263.395 -12174.579 2262.564 -12173.777 2262.564 C -12172.435 2262.564 -12172.325 2263.052 -12172.325 2263.593 C -12172.325 2264.715 -12173.059 2266.277 -12173.777 2266.277 Z  M -12183.454 2266.277 C -12184.173 2266.277 -12184.906 2264.715 -12184.906 2263.593 C -12184.906 2263.052 -12184.797 2262.564 -12183.454 2262.564 C -12182.653 2262.564 -12182.003 2263.395 -12182.003 2264.42 C -12182.003 2265.445 -12182.653 2266.277 -12183.454 2266.277 Z " fill="rgb(152,204,253)"/><path d=" M -12173.777 2263.182 C -12172.979 2263.182 -12172.835 2263.375 -12172.831 2263.375 C -12172.814 2263.446 -12172.806 2263.52 -12172.809 2263.593 C -12172.809 2264.488 -12173.418 2265.658 -12173.777 2265.658 C -12174.309 2265.658 -12174.745 2265.101 -12174.745 2264.42 C -12174.745 2263.739 -12174.309 2263.182 -12173.777 2263.182 Z  M -12183.454 2263.182 C -12182.922 2263.182 -12182.487 2263.739 -12182.487 2264.42 C -12182.487 2265.101 -12182.922 2265.658 -12183.454 2265.658 C -12183.813 2265.658 -12184.422 2264.488 -12184.422 2263.593 C -12184.422 2263.457 -12184.403 2263.385 -12184.4 2263.375 C -12184.396 2263.375 -12184.252 2263.182 -12183.454 2263.182 Z  M -12173.777 2261.945 C -12174.846 2261.945 -12175.712 2263.053 -12175.712 2264.42 C -12175.712 2265.787 -12174.846 2266.896 -12173.777 2266.896 C -12172.707 2266.896 -12171.841 2264.961 -12171.841 2263.593 C -12171.841 2262.229 -12172.707 2261.945 -12173.777 2261.945 Z  M -12183.454 2261.945 C -12184.524 2261.945 -12185.39 2262.229 -12185.39 2263.593 C -12185.39 2264.961 -12184.524 2266.896 -12183.454 2266.896 C -12182.385 2266.896 -12181.519 2265.787 -12181.519 2264.42 C -12181.519 2263.053 -12182.385 2261.945 -12183.454 2261.945 Z " fill="rgb(71,136,199)"/><path d=" M -12178.616 2272.465 C -12179.006 2272.461 -12179.376 2272.236 -12179.625 2271.851 L -12179.727 2271.692 L -12179.881 2271.642 C -12182.264 2270.904 -12183.941 2268.174 -12183.938 2265.039 L -12183.938 2258.531 C -12183.938 2256.922 -12182.913 2255.61 -12181.654 2255.61 L -12175.577 2255.61 C -12174.318 2255.61 -12173.293 2256.922 -12173.293 2258.531 L -12173.293 2265.039 C -12173.293 2268.183 -12174.964 2270.893 -12177.349 2271.643 L -12177.504 2271.692 L -12177.606 2271.851 C -12177.855 2272.237 -12178.225 2272.461 -12178.616 2272.465 Z " fill="rgb(255,255,255)"/><path d=" M -12173.293 2265.039 L -12173.293 2263.182 C -12173.293 2259.837 -12175.41 2258.052 -12175.5 2257.975 L -12175.822 2257.714 L -12176.097 2258.048 C -12176.109 2258.062 -12177.561 2259.754 -12180.612 2259.754 C -12182.267 2259.754 -12183.938 2261.026 -12183.938 2263.859 L -12183.938 2265.039 L -12184.052 2265.039 C -12184.294 2263.878 -12184.906 2260.682 -12184.906 2258.231 C -12184.906 2254.848 -12182.853 2251.424 -12178.933 2251.424 C -12176.831 2251.424 -12176.188 2253.42 -12176.162 2253.503 L -12176.041 2253.894 L -12175.712 2253.899 C -12174.291 2253.899 -12172.325 2255.432 -12172.325 2258.313 C -12172.325 2260.557 -12172.942 2263.846 -12173.184 2265.039 L -12173.293 2265.039 Z " fill="rgb(152,204,253)"/><path d=" M -12191.197 2266.277 C -12191.998 2266.277 -12192.648 2265.445 -12192.648 2264.42 C -12192.648 2263.395 -12191.998 2262.564 -12191.197 2262.564 C -12189.854 2262.564 -12189.745 2263.052 -12189.745 2263.593 C -12189.745 2264.715 -12190.478 2266.277 -12191.197 2266.277 Z  M -12200.874 2266.277 C -12201.592 2266.277 -12202.326 2264.715 -12202.326 2263.593 C -12202.326 2263.052 -12202.217 2262.564 -12200.874 2262.564 C -12200.073 2262.564 -12199.423 2263.395 -12199.423 2264.42 C -12199.423 2265.445 -12200.073 2266.277 -12200.874 2266.277 Z " fill="rgb(152,204,253)"/><path d=" M -12191.197 2263.182 C -12190.399 2263.182 -12190.255 2263.375 -12190.251 2263.375 C -12190.234 2263.446 -12190.226 2263.52 -12190.229 2263.593 C -12190.229 2264.488 -12190.838 2265.658 -12191.197 2265.658 C -12191.729 2265.658 -12192.164 2265.101 -12192.164 2264.42 C -12192.164 2263.739 -12191.729 2263.182 -12191.197 2263.182 Z  M -12200.874 2263.182 C -12200.342 2263.182 -12199.906 2263.739 -12199.906 2264.42 C -12199.906 2265.101 -12200.342 2265.658 -12200.874 2265.658 C -12201.233 2265.658 -12201.842 2264.488 -12201.842 2263.593 C -12201.842 2263.457 -12201.823 2263.385 -12201.82 2263.375 C -12201.816 2263.375 -12201.672 2263.182 -12200.874 2263.182 Z  M -12191.197 2261.945 C -12192.266 2261.945 -12193.132 2263.053 -12193.132 2264.42 C -12193.132 2265.787 -12192.266 2266.896 -12191.197 2266.896 C -12190.127 2266.896 -12189.261 2264.961 -12189.261 2263.593 C -12189.261 2262.229 -12190.127 2261.945 -12191.197 2261.945 Z  M -12200.874 2261.945 C -12201.944 2261.945 -12202.81 2262.229 -12202.81 2263.593 C -12202.81 2264.961 -12201.944 2266.896 -12200.874 2266.896 C -12199.805 2266.896 -12198.939 2265.787 -12198.939 2264.42 C -12198.939 2263.053 -12199.805 2261.945 -12200.874 2261.945 Z " fill="rgb(71,136,199)"/><path d=" M -12196.035 2272.465 C -12196.426 2272.461 -12196.796 2272.236 -12197.045 2271.851 L -12197.146 2271.692 L -12197.301 2271.642 C -12199.684 2270.904 -12201.361 2268.174 -12201.358 2265.039 L -12201.358 2258.531 C -12201.358 2256.922 -12200.333 2255.61 -12199.074 2255.61 L -12192.997 2255.61 C -12191.738 2255.61 -12190.713 2256.922 -12190.713 2258.531 L -12190.713 2265.039 C -12190.713 2268.183 -12192.384 2270.893 -12194.769 2271.643 L -12194.923 2271.692 L -12195.026 2271.851 C -12195.275 2272.237 -12195.645 2272.461 -12196.035 2272.465 Z " fill="rgb(255,255,255)"/><path d=" M -12190.713 2265.039 L -12190.713 2263.182 C -12190.713 2259.837 -12192.83 2258.052 -12192.92 2257.975 L -12193.241 2257.714 L -12193.517 2258.048 C -12193.529 2258.062 -12194.981 2259.754 -12198.032 2259.754 C -12199.687 2259.754 -12201.358 2261.026 -12201.358 2263.859 L -12201.358 2265.039 L -12201.471 2265.039 C -12201.713 2263.878 -12202.326 2260.682 -12202.326 2258.231 C -12202.326 2254.848 -12200.273 2251.424 -12196.353 2251.424 C -12194.251 2251.424 -12193.608 2253.42 -12193.582 2253.503 L -12193.461 2253.894 L -12193.132 2253.899 C -12191.71 2253.899 -12189.745 2255.432 -12189.745 2258.313 C -12189.745 2260.557 -12190.361 2263.846 -12190.603 2265.039 L -12190.713 2265.039 Z " fill="rgb(152,204,253)"/><path d=" M -12197.472 2289.793 C -12197.223 2284.964 -12194.07 2281.129 -12190.229 2281.129 L -12184.422 2281.129 C -12180.581 2281.129 -12177.428 2284.964 -12177.179 2289.793 L -12197.472 2289.793 Z " fill="rgb(182,220,254)"/><path d=" M -12190.713 2281.53 L -12190.713 2277.416 L -12183.938 2277.416 L -12183.938 2281.53 L -12187.326 2284.973 L -12190.713 2281.53 Z " fill="rgb(255,255,255)"/><path d=" M -12185.39 2282.227 L -12187.326 2282.986 L -12189.261 2282.227 L -12187.956 2285.161 L -12189.283 2290.412 L -12185.368 2290.412 L -12186.694 2285.162 L -12185.39 2282.227 Z " fill="rgb(71,136,199)"/><path d=" M -12182.487 2273.703 C -12183.288 2273.703 -12183.938 2272.872 -12183.938 2271.846 C -12183.938 2270.821 -12183.288 2269.99 -12182.487 2269.99 C -12181.144 2269.99 -12181.035 2270.479 -12181.035 2271.02 C -12181.035 2272.141 -12181.769 2273.703 -12182.487 2273.703 Z  M -12192.164 2273.703 C -12192.882 2273.703 -12193.616 2272.141 -12193.616 2271.02 C -12193.616 2270.479 -12193.507 2269.99 -12192.164 2269.99 C -12191.363 2269.99 -12190.713 2270.821 -12190.713 2271.846 C -12190.713 2272.872 -12191.363 2273.703 -12192.164 2273.703 Z " fill="rgb(182,220,254)"/><path d=" M -12182.487 2270.609 C -12181.689 2270.609 -12181.545 2270.802 -12181.541 2270.802 C -12181.524 2270.872 -12181.516 2270.946 -12181.519 2271.02 C -12181.519 2271.915 -12182.128 2273.084 -12182.487 2273.084 C -12183.019 2273.084 -12183.454 2272.527 -12183.454 2271.846 C -12183.454 2271.166 -12183.019 2270.609 -12182.487 2270.609 Z  M -12192.164 2270.609 C -12191.632 2270.609 -12191.197 2271.166 -12191.197 2271.846 C -12191.197 2272.527 -12191.632 2273.084 -12192.164 2273.084 C -12192.523 2273.084 -12193.132 2271.915 -12193.132 2271.02 C -12193.132 2270.883 -12193.113 2270.812 -12193.11 2270.802 C -12193.106 2270.802 -12192.962 2270.609 -12192.164 2270.609 Z  M -12182.487 2269.371 C -12183.556 2269.371 -12184.422 2270.479 -12184.422 2271.846 C -12184.422 2273.214 -12183.556 2274.322 -12182.487 2274.322 C -12181.417 2274.322 -12180.551 2272.387 -12180.551 2271.02 C -12180.551 2269.656 -12181.417 2269.371 -12182.487 2269.371 Z  M -12192.164 2269.371 C -12193.234 2269.371 -12194.1 2269.656 -12194.1 2271.02 C -12194.1 2272.387 -12193.234 2274.322 -12192.164 2274.322 C -12191.095 2274.322 -12190.229 2273.214 -12190.229 2271.846 C -12190.229 2270.479 -12191.095 2269.371 -12192.164 2269.371 Z " fill="rgb(71,136,199)"/><path d=" M -12187.326 2279.892 C -12187.716 2279.887 -12188.086 2279.663 -12188.335 2279.278 L -12188.437 2279.118 L -12188.591 2279.069 C -12190.974 2278.331 -12192.651 2275.601 -12192.648 2272.465 L -12192.648 2265.957 C -12192.648 2264.348 -12191.623 2263.036 -12190.364 2263.036 L -12184.287 2263.036 C -12183.028 2263.036 -12182.003 2264.348 -12182.003 2265.957 L -12182.003 2272.465 C -12182.003 2275.609 -12183.674 2278.32 -12186.059 2279.07 L -12186.214 2279.118 L -12186.316 2279.278 C -12186.565 2279.663 -12186.935 2279.888 -12187.326 2279.892 Z " fill="rgb(255,255,255)"/><path d=" M -12182.003 2272.465 L -12182.003 2270.609 C -12182.003 2267.263 -12184.12 2265.478 -12184.21 2265.402 L -12184.532 2265.14 L -12184.807 2265.475 C -12184.819 2265.488 -12186.271 2267.18 -12189.322 2267.18 C -12190.977 2267.18 -12192.648 2268.453 -12192.648 2271.286 L -12192.648 2272.465 L -12192.761 2272.465 C -12193.003 2271.304 -12193.616 2268.109 -12193.616 2265.658 C -12193.616 2262.274 -12191.563 2258.85 -12187.643 2258.85 C -12185.541 2258.85 -12184.898 2260.847 -12184.872 2260.93 L -12184.751 2261.321 L -12184.422 2261.326 C -12183.001 2261.326 -12181.035 2262.858 -12181.035 2265.74 C -12181.035 2267.984 -12181.652 2271.272 -12181.893 2272.465 L -12182.003 2272.465 Z " fill="rgb(182,220,254)"/></g><linearGradient id="_lgradient_34" x1="0%" y1="50%" x2="100%" y2="50%"><stop offset="0%" stop-opacity="1" style="stop-color:rgb(152,204,253)"/><stop offset="100%" stop-opacity="1" style="stop-color:rgb(0,142,245)"/></linearGradient><path d=" M -12152.78 2274.56 L -12152.78 2210.5 L -12149.558 2210.5 L -12149.558 2210.5 Q -12139.404 2210.5 -12132.276 2216.607 L -12132.276 2216.607 L -12132.276 2216.607 Q -12125.148 2222.714 -12125.148 2230.999 L -12125.148 2230.999 L -12125.148 2230.999 Q -12125.148 2239.284 -12132.52 2245.263 L -12132.52 2245.263 L -12132.52 2245.263 Q -12139.892 2251.242 -12148.777 2251.242 L -12148.777 2251.242 L -12149.558 2251.242 L -12149.558 2274.56 L -12152.78 2274.56 Z  M -12149.558 2212.977 L -12149.558 2248.851 L -12148.777 2248.851 L -12148.777 2248.851 Q -12140.575 2248.851 -12134.473 2243.555 L -12134.473 2243.555 L -12134.473 2243.555 Q -12128.37 2238.26 -12128.37 2230.999 L -12128.37 2230.999 L -12128.37 2230.999 Q -12128.37 2223.739 -12134.57 2218.358 L -12134.57 2218.358 L -12134.57 2218.358 Q -12140.771 2212.977 -12148.777 2212.977 L -12148.777 2212.977 L -12149.558 2212.977 Z  M -12112.943 2252.182 L -12112.943 2274.56 L -12116.067 2274.56 L -12116.067 2210.585 L -12112.943 2210.585 L -12112.943 2243.555 L -12112.943 2243.555 Q -12108.061 2235.185 -12096.051 2235.185 L -12096.051 2235.185 L -12096.051 2235.185 Q -12087.849 2235.185 -12082.235 2240.139 L -12082.235 2240.139 L -12082.235 2240.139 Q -12076.621 2245.093 -12076.621 2252.182 L -12076.621 2252.182 L -12076.621 2274.56 L -12079.745 2274.56 L -12079.745 2252.182 L -12079.745 2252.182 Q -12079.745 2246.203 -12084.53 2241.89 L -12084.53 2241.89 L -12084.53 2241.89 Q -12089.314 2237.576 -12096.051 2237.576 L -12096.051 2237.576 L -12096.051 2237.576 Q -12102.788 2237.576 -12107.866 2241.932 L -12107.866 2241.932 L -12107.866 2241.932 Q -12112.943 2246.288 -12112.943 2252.182 L -12112.943 2252.182 Z  M -12025.164 2236.124 L -12022.039 2236.124 L -12022.039 2274.56 L -12025.164 2274.56 L -12025.164 2264.994 L -12025.164 2264.994 Q -12027.898 2269.863 -12033.366 2272.681 L -12033.366 2272.681 L -12033.366 2272.681 Q -12038.834 2275.5 -12045.083 2275.5 L -12045.083 2275.5 L -12045.083 2275.5 Q -12054.651 2275.5 -12061.486 2269.564 L -12061.486 2269.564 L -12061.486 2269.564 Q -12068.321 2263.627 -12068.321 2255.342 L -12068.321 2255.342 L -12068.321 2255.342 Q -12068.321 2247.057 -12061.486 2241.121 L -12061.486 2241.121 L -12061.486 2241.121 Q -12054.651 2235.185 -12045.083 2235.185 L -12045.083 2235.185 L -12045.083 2235.185 Q -12038.834 2235.185 -12033.122 2238.089 L -12033.122 2238.089 L -12033.122 2238.089 Q -12027.41 2240.993 -12025.164 2245.776 L -12025.164 2245.776 L -12025.164 2236.124 Z  M -12065.197 2255.428 L -12065.197 2255.428 L -12065.197 2255.428 Q -12065.197 2262.602 -12059.192 2267.855 L -12059.192 2267.855 L -12059.192 2267.855 Q -12053.187 2273.108 -12044.936 2273.108 L -12044.936 2273.108 L -12044.936 2273.108 Q -12036.686 2273.108 -12030.827 2267.855 L -12030.827 2267.855 L -12030.827 2267.855 Q -12024.969 2262.602 -12024.969 2255.385 L -12024.969 2255.385 L -12024.969 2255.385 Q -12024.969 2248.168 -12030.876 2242.872 L -12030.876 2242.872 L -12030.876 2242.872 Q -12036.783 2237.576 -12044.985 2237.576 L -12044.985 2237.576 L -12044.985 2237.576 Q -12053.187 2237.576 -12059.192 2242.915 L -12059.192 2242.915 L -12059.192 2242.915 Q -12065.197 2248.253 -12065.197 2255.428 Z  M -11984.643 2241.334 L -11984.643 2241.334 Q -11988.939 2237.576 -11994.114 2237.576 L -11994.114 2237.576 L -11994.114 2237.576 Q -11999.289 2237.576 -12003.244 2240.993 L -12003.244 2240.993 L -12003.244 2240.993 Q -12007.198 2244.409 -12007.198 2248.936 L -12007.198 2248.936 L -12007.198 2274.56 L -12010.323 2274.56 L -12010.323 2236.124 L -12007.198 2236.124 L -12007.198 2241.847 L -12007.198 2241.847 Q -12005.441 2238.943 -12001.73 2237.064 L -12001.73 2237.064 L -12001.73 2237.064 Q -11998.02 2235.185 -11993.431 2235.185 L -11993.431 2235.185 L -11993.431 2235.185 Q -11988.842 2235.185 -11984.643 2237.918 L -11984.643 2237.918 L -11984.643 2241.334 Z  M -11945.88 2244.239 L -11945.88 2244.239 Q -11944.415 2240.139 -11940.265 2237.662 L -11940.265 2237.662 L -11940.265 2237.662 Q -11936.116 2235.185 -11930.159 2235.185 L -11930.159 2235.185 L -11930.159 2235.185 Q -11924.203 2235.185 -11919.712 2238.943 L -11919.712 2238.943 L -11919.712 2238.943 Q -11915.22 2242.701 -11915.22 2249.107 L -11915.22 2249.107 L -11915.22 2274.56 L -11918.345 2274.56 L -11918.345 2249.107 L -11918.345 2249.107 Q -11918.345 2244.153 -11922.055 2240.865 L -11922.055 2240.865 L -11922.055 2240.865 Q -11925.766 2237.576 -11930.989 2237.576 L -11930.989 2237.576 L -11930.989 2237.576 Q -11936.213 2237.576 -11940.265 2240.993 L -11940.265 2240.993 L -11940.265 2240.993 Q -11944.317 2244.409 -11944.317 2248.936 L -11944.317 2248.936 L -11944.317 2274.56 L -11947.442 2274.56 L -11947.442 2248.936 L -11947.442 2248.936 Q -11947.442 2244.324 -11951.152 2240.95 L -11951.152 2240.95 L -11951.152 2240.95 Q -11954.863 2237.576 -11960.135 2237.576 L -11960.135 2237.576 L -11960.135 2237.576 Q -11965.408 2237.576 -11969.313 2240.993 L -11969.313 2240.993 L -11969.313 2240.993 Q -11973.219 2244.409 -11973.219 2248.936 L -11973.219 2248.936 L -11973.219 2274.56 L -11976.344 2274.56 L -11976.344 2236.124 L -11973.219 2236.124 L -11973.219 2241.505 L -11973.219 2241.505 Q -11971.266 2238.943 -11967.409 2237.064 L -11967.409 2237.064 L -11967.409 2237.064 Q -11963.553 2235.185 -11959.403 2235.185 L -11959.403 2235.185 L -11959.403 2235.185 Q -11955.253 2235.185 -11951.445 2237.704 L -11951.445 2237.704 L -11951.445 2237.704 Q -11947.637 2240.224 -11945.88 2244.239 L -11945.88 2244.239 Z  M -11862.787 2236.124 L -11859.663 2236.124 L -11859.663 2274.56 L -11862.787 2274.56 L -11862.787 2264.994 L -11862.787 2264.994 Q -11865.521 2269.863 -11870.989 2272.681 L -11870.989 2272.681 L -11870.989 2272.681 Q -11876.457 2275.5 -11882.706 2275.5 L -11882.706 2275.5 L -11882.706 2275.5 Q -11892.275 2275.5 -11899.11 2269.564 L -11899.11 2269.564 L -11899.11 2269.564 Q -11905.945 2263.627 -11905.945 2255.342 L -11905.945 2255.342 L -11905.945 2255.342 Q -11905.945 2247.057 -11899.11 2241.121 L -11899.11 2241.121 L -11899.11 2241.121 Q -11892.275 2235.185 -11882.706 2235.185 L -11882.706 2235.185 L -11882.706 2235.185 Q -11876.457 2235.185 -11870.745 2238.089 L -11870.745 2238.089 L -11870.745 2238.089 Q -11865.033 2240.993 -11862.787 2245.776 L -11862.787 2245.776 L -11862.787 2236.124 Z  M -11902.82 2255.428 L -11902.82 2255.428 L -11902.82 2255.428 Q -11902.82 2262.602 -11896.815 2267.855 L -11896.815 2267.855 L -11896.815 2267.855 Q -11890.81 2273.108 -11882.56 2273.108 L -11882.56 2273.108 L -11882.56 2273.108 Q -11874.309 2273.108 -11868.451 2267.855 L -11868.451 2267.855 L -11868.451 2267.855 Q -11862.592 2262.602 -11862.592 2255.385 L -11862.592 2255.385 L -11862.592 2255.385 Q -11862.592 2248.168 -11868.499 2242.872 L -11868.499 2242.872 L -11868.499 2242.872 Q -11874.407 2237.576 -11882.608 2237.576 L -11882.608 2237.576 L -11882.608 2237.576 Q -11890.81 2237.576 -11896.815 2242.915 L -11896.815 2242.915 L -11896.815 2242.915 Q -11902.82 2248.253 -11902.82 2255.428 Z " fill-rule="evenodd" fill="url(#_lgradient_34)"/></g></svg>