<?xml version="1.0" standalone="no"?><!-- Generator: Gravit.io --><svg xmlns="http://www.w3.org/2000/svg" xmlns:xlink="http://www.w3.org/1999/xlink" style="isolation:isolate" viewBox="-11227.757 2814.64 121.627 134.311" width="121.627" height="134.311"><g id="pharmacy"><linearGradient id="_lgradient_11" x1="12.256000184321833%" y1="3.039441310532176%" x2="81.98080317803222%" y2="82.12228816769036%"><stop offset="0%" stop-opacity="1" style="stop-color:rgb(188,201,210)"/><stop offset="100%" stop-opacity="1" style="stop-color:rgb(171,203,242)"/></linearGradient><path d=" M -11121.925 2927.304 L -11121.925 2927.304 C -11130.031 2932.426 -11143.196 2940.149 -11151.305 2944.538 L -11151.305 2944.538 C -11159.414 2948.927 -11172.762 2948.662 -11181.094 2943.945 L -11181.094 2943.945 C -11189.426 2939.228 -11202.458 2931.269 -11210.179 2926.183 L -11210.179 2926.183 C -11217.9 2921.096 -11224.352 2908.979 -11224.578 2899.139 L -11224.578 2899.139 C -11224.804 2889.3 -11224.672 2873.618 -11224.284 2864.143 L -11224.284 2864.143 C -11223.896 2854.667 -11217 2842.815 -11208.894 2837.693 L -11208.894 2837.693 C -11200.788 2832.57 -11187.624 2824.848 -11179.514 2820.458 L -11179.514 2820.458 C -11171.405 2816.069 -11158.057 2816.335 -11149.726 2821.052 L -11149.726 2821.052 C -11141.394 2825.769 -11128.361 2833.728 -11120.64 2838.814 L -11120.64 2838.814 C -11112.919 2843.9 -11106.467 2856.018 -11106.241 2865.857 L -11106.241 2865.857 C -11106.015 2875.697 -11106.147 2891.378 -11106.535 2900.854 L -11106.535 2900.854 C -11106.923 2910.329 -11113.819 2922.181 -11121.925 2927.304 Z " fill="url(#_lgradient_11)"/><linearGradient id="_lgradient_12" x1="12.256000184321833%" y1="3.039441310532176%" x2="81.98080317803222%" y2="82.12228816769036%"><stop offset="0%" stop-opacity="1" style="stop-color:rgb(0,153,255)"/><stop offset="100%" stop-opacity="1" style="stop-color:rgb(0,90,199)"/></linearGradient><path d=" M -11118.63 2922.661 L -11131.098 2930.54 C -11135.763 2933.488 -11143.492 2938.015 -11148.345 2940.642 L -11160.142 2947.028 C -11164.996 2949.655 -11172.836 2949.58 -11177.639 2946.861 L -11190.427 2939.622 C -11195.23 2936.902 -11202.871 2932.23 -11207.48 2929.194 L -11218.757 2921.765 C -11223.366 2918.729 -11227.211 2911.784 -11227.338 2906.266 L -11227.697 2890.605 C -11227.824 2885.088 -11227.743 2876.131 -11227.517 2870.616 L -11226.93 2856.263 C -11226.704 2850.748 -11222.733 2843.877 -11218.067 2840.929 L -11205.6 2833.05 C -11200.934 2830.102 -11193.206 2825.575 -11188.352 2822.948 L -11176.555 2816.562 C -11171.702 2813.935 -11163.862 2814.01 -11159.059 2816.729 L -11146.27 2823.968 C -11141.468 2826.687 -11133.826 2831.36 -11129.217 2834.396 L -11117.94 2841.825 C -11113.331 2844.861 -11109.487 2851.806 -11109.36 2857.323 L -11109 2872.985 C -11108.874 2878.502 -11108.954 2887.459 -11109.18 2892.974 L -11109.768 2907.327 C -11109.994 2912.842 -11113.965 2919.713 -11118.63 2922.661 Z " fill="url(#_lgradient_12)"/><linearGradient id="_lgradient_13" x1="188.66979161507692%" y1="-100.98106549671009%" x2="-85.92502591468718%" y2="206.01653678160966%"><stop offset="0%" stop-opacity="1" style="stop-color:rgb(255,255,255)"/><stop offset="18.695652173913043%" stop-opacity="1" style="stop-color:rgb(253,253,253)"/><stop offset="37.391304347826086%" stop-opacity="1" style="stop-color:rgb(252,254,255)"/><stop offset="46.74720182739094%" stop-opacity="1" style="stop-color:rgb(252,254,255)"/><stop offset="49.9187611292604%" stop-opacity="1" style="stop-color:rgb(252,254,255)"/><stop offset="62.76961092672367%" stop-opacity="1" style="stop-color:rgb(159,210,247)"/><stop offset="81.30434782608695%" stop-opacity="1" style="stop-color:rgb(163,212,247)"/><stop offset="99.19067926225905%" stop-opacity="1" style="stop-color:rgb(130,197,244)"/><stop offset="100%" stop-opacity="1" style="stop-color:rgb(128,196,244)"/></linearGradient><path d=" M -11183.846 2846.779 C -11178.735 2846.779 -11173.633 2848.71 -11169.726 2852.559 C -11169.23 2853.059 -11162.935 2859.179 -11157.069 2864.969 L -11138.732 2883.069 C -11130.929 2890.772 -11130.929 2903.329 -11138.732 2911.031 C -11142.505 2914.738 -11147.614 2916.816 -11152.937 2916.811 C -11158.05 2916.811 -11163.15 2914.88 -11167.057 2911.031 C -11167.671 2910.414 -11176.829 2901.384 -11185.394 2892.928 C -11191.282 2887.116 -11197.439 2880.953 -11197.966 2880.434 C -11201.712 2876.738 -11203.817 2871.724 -11203.817 2866.495 C -11203.817 2861.266 -11201.712 2856.252 -11197.966 2852.556 C -11194.224 2848.853 -11189.143 2846.774 -11183.846 2846.779 Z  M -11183.846 2852.219 C -11187.708 2852.219 -11191.359 2853.687 -11194.092 2856.383 C -11199.732 2861.95 -11199.721 2871.042 -11194.092 2876.612 C -11193.563 2877.132 -11187.323 2883.211 -11181.435 2889.02 L -11165.938 2873.721 L -11139.506 2899.815 C -11137.172 2893.535 -11143.38 2886.385 -11143.38 2886.385 L -11161.031 2868.877 C -11166.897 2863.087 -11173.107 2856.872 -11173.6 2856.383 C -11176.315 2853.7 -11180.004 2852.201 -11183.846 2852.219 Z " fill="url(#_lgradient_13)"/></g></svg>